<svg width="20" height="24" viewBox="0 0 20 24" fill="none" xmlns="http://www.w3.org/2000/svg">
<g clip-path="url(#clip0_1095_4668)">
<path d="M11.8867 0.25C11.9325 0.25 11.9764 0.257992 12.0186 0.269531C12.0337 0.273713 12.0488 0.277631 12.0635 0.283203C12.0762 0.288035 12.0884 0.293984 12.1006 0.299805C12.1158 0.307077 12.131 0.314441 12.1455 0.323242C12.1552 0.329124 12.1646 0.335291 12.1738 0.341797C12.1906 0.353635 12.2064 0.366913 12.2217 0.380859C12.2292 0.387689 12.237 0.394096 12.2441 0.401367L14.79 2.94727C14.8837 3.03813 14.9424 3.16491 14.9424 3.30566C14.9424 3.30893 14.9415 3.31218 14.9414 3.31543V7.0625H17.1924L17.2588 7.06738C17.4133 7.08819 17.5505 7.18013 17.6279 7.31836L19.3018 10.3086C19.3058 10.3159 19.3088 10.3236 19.3125 10.3311C19.3186 10.3433 19.325 10.3554 19.3301 10.3682C19.3392 10.3911 19.346 10.4147 19.3516 10.4385C19.3541 10.4494 19.3556 10.4605 19.3574 10.4717C19.3606 10.4908 19.3624 10.51 19.3633 10.5293C19.3636 10.5371 19.3662 10.5448 19.3662 10.5527V22.3584C19.3662 22.9943 18.8492 23.4998 18.2246 23.5H1.3916C0.755565 23.5 0.25 22.9832 0.25 22.3584V10.5479C0.250292 10.5184 0.253303 10.489 0.258789 10.46C0.259638 10.4554 0.259772 10.4508 0.260742 10.4463C0.266944 10.4178 0.275853 10.3896 0.287109 10.3623C0.289327 10.3569 0.292523 10.352 0.294922 10.3467C0.300726 10.3339 0.306536 10.321 0.313477 10.3086L1.9873 7.31836C2.07571 7.1604 2.24281 7.0625 2.42383 7.0625H4.67383V1.43066C4.67383 0.772469 5.20722 0.250001 5.85449 0.25H11.8867ZM1.25 22.3584C1.25 22.4366 1.31351 22.5 1.3916 22.5H18.2246C18.3026 22.4998 18.3662 22.4364 18.3662 22.3584V11.0527H1.25V22.3584ZM9.8125 12.6641C10.0886 12.6641 10.3125 12.8879 10.3125 13.1641V19.0674L12.7227 16.6543C12.9178 16.4591 13.2343 16.4593 13.4297 16.6543C13.6249 16.8494 13.6247 17.166 13.4297 17.3613L10.166 20.6309C10.1623 20.6346 10.1572 20.637 10.1533 20.6406C10.1379 20.6551 10.1217 20.6682 10.1045 20.6807C10.0955 20.6872 10.0865 20.6934 10.0771 20.6992C10.06 20.71 10.0419 20.7189 10.0234 20.7275C10.0139 20.732 10.0049 20.7374 9.99512 20.7412C9.9718 20.7504 9.94772 20.7571 9.92285 20.7627C9.91754 20.7639 9.91258 20.7665 9.90723 20.7676C9.8765 20.7735 9.84494 20.7773 9.8125 20.7773C9.77973 20.7773 9.74781 20.7736 9.7168 20.7676C9.71145 20.7665 9.70648 20.7639 9.70117 20.7627C9.67633 20.757 9.65219 20.7504 9.62891 20.7412C9.61913 20.7373 9.6101 20.732 9.60059 20.7275C9.58211 20.7188 9.56403 20.71 9.54688 20.6992C9.53754 20.6933 9.52849 20.6872 9.51953 20.6807C9.50241 20.6682 9.48609 20.6551 9.4707 20.6406C9.46701 20.6372 9.46258 20.6345 9.45898 20.6309L6.18945 17.3613C5.99419 17.1661 5.99419 16.8496 6.18945 16.6543C6.38472 16.459 6.70122 16.459 6.89648 16.6543L9.3125 19.0703V13.1641C9.3125 12.8879 9.53636 12.6641 9.8125 12.6641ZM14.9414 10.0527H18.0127L16.8994 8.0625H14.9414V10.0527ZM5.85449 1.25C5.75415 1.25 5.67383 1.33009 5.67383 1.43066V10.0527H13.9414V3.80566H11.8867C11.6107 3.80566 11.3869 3.58163 11.3867 3.30566V1.25H5.85449ZM2.7168 8.0625L1.60352 10.0527H4.67383V8.0625H2.7168ZM12.3867 2.80566H13.2344L12.3867 1.95801V2.80566Z" fill="#000047"/>
</g>
<defs>
<clipPath id="clip0_1095_4668">
<rect width="20" height="24" fill="white"/>
</clipPath>
</defs>
</svg>
