<svg width="25" height="25" viewBox="0 0 25 25" fill="none" xmlns="http://www.w3.org/2000/svg">
<path d="M18.875 0V0.5H21C21.4755 0.5 21.9279 0.594782 22.3398 0.765625L22.5303 0.303711C23.5082 0.709023 24.2897 1.49099 24.6953 2.46875L24.2344 2.66016C24.4052 3.07214 24.5 3.52451 24.5 4V6.125H25V10.375H24.5V14.625H25V18.875H24.5V21C24.5 21.4755 24.4052 21.9279 24.2344 22.3398L24.6953 22.5303C24.2898 23.5083 23.5083 24.2898 22.5303 24.6953L22.3398 24.2344C21.9279 24.4052 21.4755 24.5 21 24.5H18.875V25H14.625V24.5H10.375V25H6.125V24.5H4C3.52451 24.5 3.07214 24.4052 2.66016 24.2344L2.46875 24.6953C1.49099 24.2897 0.709023 23.5082 0.303711 22.5303L0.765625 22.3398C0.594782 21.9279 0.5 21.4755 0.5 21V18.875H0V14.625H0.5V10.375H0V6.125H0.5V4C0.5 3.52451 0.594782 3.07214 0.765625 2.66016L0.303711 2.46875C0.70917 1.49111 1.49111 0.70917 2.46875 0.303711L2.66016 0.765625C3.07214 0.594782 3.52451 0.5 4 0.5H6.125V0H10.375V0.5H14.625V0H18.875Z" stroke="#000047" stroke-dasharray="4 4"/>
</svg>
