<svg width="23" height="24" viewBox="0 0 23 24" fill="none" xmlns="http://www.w3.org/2000/svg">
<g clip-path="url(#clip0_1095_4629)">
<path d="M13.7227 0.25C14.3056 0.25 14.7801 0.724757 14.7803 1.30762V2.82227H22.1133C22.3892 2.82247 22.6133 3.04625 22.6133 3.32227C22.6133 3.59828 22.3892 3.82206 22.1133 3.82227H20.8428V3.8252L18.1426 21.9639C18.1417 21.9697 18.1407 21.9756 18.1396 21.9814C17.979 22.8458 17.2282 23.4773 16.3486 23.4775H6.51172C5.6287 23.4774 4.87385 22.8474 4.71973 21.9775L4.71777 21.9639L2.01758 3.8252V3.82227H0.75C0.473858 3.82227 0.25 3.59841 0.25 3.32227C0.25 3.04612 0.473858 2.82227 0.75 2.82227H8.08984V1.30762C8.09001 0.724859 8.5647 0.250166 9.14746 0.25H13.7227ZM5.70605 21.8096C5.77788 22.1968 6.1142 22.4774 6.51172 22.4775H16.3486C16.7407 22.4773 17.0825 22.195 17.1562 21.7988L19.832 3.82227H3.02734L5.70605 21.8096ZM11.4336 5.39941C11.7097 5.39941 11.9336 5.62327 11.9336 5.89941V20.4561C11.9334 20.732 11.7096 20.9561 11.4336 20.9561C11.1576 20.9561 10.9338 20.732 10.9336 20.4561V5.89941C10.9336 5.62327 11.1575 5.39941 11.4336 5.39941ZM6.68945 5.40332C6.96368 5.37095 7.21175 5.5666 7.24414 5.84082L8.96289 20.3975C8.995 20.6714 8.79932 20.9196 8.52539 20.9521C8.25127 20.9845 8.00228 20.7887 7.96973 20.5146L6.25195 5.95801C6.21958 5.68378 6.41523 5.43571 6.68945 5.40332ZM16.3066 5.40332C16.5807 5.43587 16.7765 5.6839 16.7441 5.95801L15.0254 20.5146C14.9928 20.7887 14.7448 20.9845 14.4707 20.9521C14.1966 20.9198 14.0011 20.6715 14.0332 20.3975L15.751 5.84082C15.7834 5.56658 16.0324 5.37095 16.3066 5.40332ZM9.14746 1.25C9.13319 1.25008 9.11935 1.25565 9.10742 1.26758C9.09549 1.27951 9.08992 1.29335 9.08984 1.30762V2.82227H13.7803V1.30762C13.7802 1.29347 13.7754 1.27944 13.7637 1.26758C13.7517 1.25556 13.737 1.25 13.7227 1.25H9.14746Z" fill="#000047"/>
</g>
<defs>
<clipPath id="clip0_1095_4629">
<rect width="23" height="24" fill="white"/>
</clipPath>
</defs>
</svg>
