<svg width="25" height="25" viewBox="0 0 25 25" fill="none" xmlns="http://www.w3.org/2000/svg" xmlns:xlink="http://www.w3.org/1999/xlink">
<path d="M4 0.25H21C23.0711 0.25 24.75 1.92893 24.75 4V21C24.75 23.0711 23.0711 24.75 21 24.75H4C1.92893 24.75 0.25 23.0711 0.25 21V4C0.25 1.92893 1.92893 0.25 4 0.25Z" fill="url(#pattern0_1181_7208)" stroke="#000047" stroke-width="0.5"/>
<defs>
<pattern id="pattern0_1181_7208" patternUnits="userSpaceOnUse" patternTransform="matrix(169 0 0 169 -72 -72)" preserveAspectRatio="none" viewBox="0 0 338 338" width="1" height="1">
<g id="pattern0_1181_7208_inner">
<rect width="2" height="2" fill="#666691"/>
<rect y="14" width="2" height="2" fill="#666691"/>
<rect y="14" width="2" height="2" fill="#666691"/>
<rect y="28" width="2" height="2" fill="#666691"/>
<rect y="42" width="2" height="2" fill="#666691"/>
<rect y="56" width="2" height="2" fill="#666691"/>
<rect y="70" width="2" height="2" fill="#666691"/>
<rect y="84" width="2" height="2" fill="#666691"/>
<rect y="98" width="2" height="2" fill="#666691"/>
<rect y="112" width="2" height="2" fill="#666691"/>
<rect y="126" width="2" height="2" fill="#666691"/>
<rect y="140" width="2" height="2" fill="#666691"/>
<rect y="154" width="2" height="2" fill="#666691"/>
<rect y="168" width="2" height="2" fill="#666691"/>
<rect y="182" width="2" height="2" fill="#666691"/>
<rect y="196" width="2" height="2" fill="#666691"/>
<rect y="210" width="2" height="2" fill="#666691"/>
<rect y="224" width="2" height="2" fill="#666691"/>
<rect y="238" width="2" height="2" fill="#666691"/>
<rect y="252" width="2" height="2" fill="#666691"/>
<rect y="266" width="2" height="2" fill="#666691"/>
<rect y="280" width="2" height="2" fill="#666691"/>
<rect y="294" width="2" height="2" fill="#666691"/>
<rect y="308" width="2" height="2" fill="#666691"/>
<rect y="322" width="2" height="2" fill="#666691"/>
<rect y="336" width="2" height="2" fill="#666691"/>
<rect x="14" width="2" height="2" fill="#666691"/>
<rect x="14" y="14" width="2" height="2" fill="#666691"/>
<rect x="14" y="14" width="2" height="2" fill="#666691"/>
<rect x="14" y="28" width="2" height="2" fill="#666691"/>
<rect x="14" y="42" width="2" height="2" fill="#666691"/>
<rect x="14" y="56" width="2" height="2" fill="#666691"/>
<rect x="14" y="70" width="2" height="2" fill="#666691"/>
<rect x="14" y="84" width="2" height="2" fill="#666691"/>
<rect x="14" y="98" width="2" height="2" fill="#666691"/>
<rect x="14" y="112" width="2" height="2" fill="#666691"/>
<rect x="14" y="126" width="2" height="2" fill="#666691"/>
<rect x="14" y="140" width="2" height="2" fill="#666691"/>
<rect x="14" y="154" width="2" height="2" fill="#666691"/>
<rect x="14" y="168" width="2" height="2" fill="#666691"/>
<rect x="14" y="182" width="2" height="2" fill="#666691"/>
<rect x="14" y="196" width="2" height="2" fill="#666691"/>
<rect x="14" y="210" width="2" height="2" fill="#666691"/>
<rect x="14" y="224" width="2" height="2" fill="#666691"/>
<rect x="14" y="238" width="2" height="2" fill="#666691"/>
<rect x="14" y="252" width="2" height="2" fill="#666691"/>
<rect x="14" y="266" width="2" height="2" fill="#666691"/>
<rect x="14" y="280" width="2" height="2" fill="#666691"/>
<rect x="14" y="294" width="2" height="2" fill="#666691"/>
<rect x="14" y="308" width="2" height="2" fill="#666691"/>
<rect x="14" y="322" width="2" height="2" fill="#666691"/>
<rect x="14" y="336" width="2" height="2" fill="#666691"/>
<rect x="28" width="2" height="2" fill="#666691"/>
<rect x="28" y="14" width="2" height="2" fill="#666691"/>
<rect x="28" y="14" width="2" height="2" fill="#666691"/>
<rect x="28" y="28" width="2" height="2" fill="#666691"/>
<rect x="28" y="42" width="2" height="2" fill="#666691"/>
<rect x="28" y="56" width="2" height="2" fill="#666691"/>
<rect x="28" y="70" width="2" height="2" fill="#666691"/>
<rect x="28" y="84" width="2" height="2" fill="#666691"/>
<rect x="28" y="98" width="2" height="2" fill="#666691"/>
<rect x="28" y="112" width="2" height="2" fill="#666691"/>
<rect x="28" y="126" width="2" height="2" fill="#666691"/>
<rect x="28" y="140" width="2" height="2" fill="#666691"/>
<rect x="28" y="154" width="2" height="2" fill="#666691"/>
<rect x="28" y="168" width="2" height="2" fill="#666691"/>
<rect x="28" y="182" width="2" height="2" fill="#666691"/>
<rect x="28" y="196" width="2" height="2" fill="#666691"/>
<rect x="28" y="210" width="2" height="2" fill="#666691"/>
<rect x="28" y="224" width="2" height="2" fill="#666691"/>
<rect x="28" y="238" width="2" height="2" fill="#666691"/>
<rect x="28" y="252" width="2" height="2" fill="#666691"/>
<rect x="28" y="266" width="2" height="2" fill="#666691"/>
<rect x="28" y="280" width="2" height="2" fill="#666691"/>
<rect x="28" y="294" width="2" height="2" fill="#666691"/>
<rect x="28" y="308" width="2" height="2" fill="#666691"/>
<rect x="28" y="322" width="2" height="2" fill="#666691"/>
<rect x="28" y="336" width="2" height="2" fill="#666691"/>
<rect x="42" width="2" height="2" fill="#666691"/>
<rect x="42" y="14" width="2" height="2" fill="#666691"/>
<rect x="42" y="14" width="2" height="2" fill="#666691"/>
<rect x="42" y="28" width="2" height="2" fill="#666691"/>
<rect x="42" y="42" width="2" height="2" fill="#666691"/>
<rect x="42" y="56" width="2" height="2" fill="#666691"/>
<rect x="42" y="70" width="2" height="2" fill="#666691"/>
<rect x="42" y="84" width="2" height="2" fill="#666691"/>
<rect x="42" y="98" width="2" height="2" fill="#666691"/>
<rect x="42" y="112" width="2" height="2" fill="#666691"/>
<rect x="42" y="126" width="2" height="2" fill="#666691"/>
<rect x="42" y="140" width="2" height="2" fill="#666691"/>
<rect x="42" y="154" width="2" height="2" fill="#666691"/>
<rect x="42" y="168" width="2" height="2" fill="#666691"/>
<rect x="42" y="182" width="2" height="2" fill="#666691"/>
<rect x="42" y="196" width="2" height="2" fill="#666691"/>
<rect x="42" y="210" width="2" height="2" fill="#666691"/>
<rect x="42" y="224" width="2" height="2" fill="#666691"/>
<rect x="42" y="238" width="2" height="2" fill="#666691"/>
<rect x="42" y="252" width="2" height="2" fill="#666691"/>
<rect x="42" y="266" width="2" height="2" fill="#666691"/>
<rect x="42" y="280" width="2" height="2" fill="#666691"/>
<rect x="42" y="294" width="2" height="2" fill="#666691"/>
<rect x="42" y="308" width="2" height="2" fill="#666691"/>
<rect x="42" y="322" width="2" height="2" fill="#666691"/>
<rect x="42" y="336" width="2" height="2" fill="#666691"/>
<rect x="56" width="2" height="2" fill="#666691"/>
<rect x="56" y="14" width="2" height="2" fill="#666691"/>
<rect x="56" y="14" width="2" height="2" fill="#666691"/>
<rect x="56" y="28" width="2" height="2" fill="#666691"/>
<rect x="56" y="42" width="2" height="2" fill="#666691"/>
<rect x="56" y="56" width="2" height="2" fill="#666691"/>
<rect x="56" y="70" width="2" height="2" fill="#666691"/>
<rect x="56" y="84" width="2" height="2" fill="#666691"/>
<rect x="56" y="98" width="2" height="2" fill="#666691"/>
<rect x="56" y="112" width="2" height="2" fill="#666691"/>
<rect x="56" y="126" width="2" height="2" fill="#666691"/>
<rect x="56" y="140" width="2" height="2" fill="#666691"/>
<rect x="56" y="154" width="2" height="2" fill="#666691"/>
<rect x="56" y="168" width="2" height="2" fill="#666691"/>
<rect x="56" y="182" width="2" height="2" fill="#666691"/>
<rect x="56" y="196" width="2" height="2" fill="#666691"/>
<rect x="56" y="210" width="2" height="2" fill="#666691"/>
<rect x="56" y="224" width="2" height="2" fill="#666691"/>
<rect x="56" y="238" width="2" height="2" fill="#666691"/>
<rect x="56" y="252" width="2" height="2" fill="#666691"/>
<rect x="56" y="266" width="2" height="2" fill="#666691"/>
<rect x="56" y="280" width="2" height="2" fill="#666691"/>
<rect x="56" y="294" width="2" height="2" fill="#666691"/>
<rect x="56" y="308" width="2" height="2" fill="#666691"/>
<rect x="56" y="322" width="2" height="2" fill="#666691"/>
<rect x="56" y="336" width="2" height="2" fill="#666691"/>
<rect x="70" width="2" height="2" fill="#666691"/>
<rect x="70" y="14" width="2" height="2" fill="#666691"/>
<rect x="70" y="14" width="2" height="2" fill="#666691"/>
<rect x="70" y="28" width="2" height="2" fill="#666691"/>
<rect x="70" y="42" width="2" height="2" fill="#666691"/>
<rect x="70" y="56" width="2" height="2" fill="#666691"/>
<rect x="70" y="70" width="2" height="2" fill="#666691"/>
<rect x="70" y="84" width="2" height="2" fill="#666691"/>
<rect x="70" y="98" width="2" height="2" fill="#666691"/>
<rect x="70" y="112" width="2" height="2" fill="#666691"/>
<rect x="70" y="126" width="2" height="2" fill="#666691"/>
<rect x="70" y="140" width="2" height="2" fill="#666691"/>
<rect x="70" y="154" width="2" height="2" fill="#666691"/>
<rect x="70" y="168" width="2" height="2" fill="#666691"/>
<rect x="70" y="182" width="2" height="2" fill="#666691"/>
<rect x="70" y="196" width="2" height="2" fill="#666691"/>
<rect x="70" y="210" width="2" height="2" fill="#666691"/>
<rect x="70" y="224" width="2" height="2" fill="#666691"/>
<rect x="70" y="238" width="2" height="2" fill="#666691"/>
<rect x="70" y="252" width="2" height="2" fill="#666691"/>
<rect x="70" y="266" width="2" height="2" fill="#666691"/>
<rect x="70" y="280" width="2" height="2" fill="#666691"/>
<rect x="70" y="294" width="2" height="2" fill="#666691"/>
<rect x="70" y="308" width="2" height="2" fill="#666691"/>
<rect x="70" y="322" width="2" height="2" fill="#666691"/>
<rect x="70" y="336" width="2" height="2" fill="#666691"/>
<rect x="84" width="2" height="2" fill="#666691"/>
<rect x="84" y="14" width="2" height="2" fill="#666691"/>
<rect x="84" y="14" width="2" height="2" fill="#666691"/>
<rect x="84" y="28" width="2" height="2" fill="#666691"/>
<rect x="84" y="42" width="2" height="2" fill="#666691"/>
<rect x="84" y="56" width="2" height="2" fill="#666691"/>
<rect x="84" y="70" width="2" height="2" fill="#666691"/>
<rect x="84" y="84" width="2" height="2" fill="#666691"/>
<rect x="84" y="98" width="2" height="2" fill="#666691"/>
<rect x="84" y="112" width="2" height="2" fill="#666691"/>
<rect x="84" y="126" width="2" height="2" fill="#666691"/>
<rect x="84" y="140" width="2" height="2" fill="#666691"/>
<rect x="84" y="154" width="2" height="2" fill="#666691"/>
<rect x="84" y="168" width="2" height="2" fill="#666691"/>
<rect x="84" y="182" width="2" height="2" fill="#666691"/>
<rect x="84" y="196" width="2" height="2" fill="#666691"/>
<rect x="84" y="210" width="2" height="2" fill="#666691"/>
<rect x="84" y="224" width="2" height="2" fill="#666691"/>
<rect x="84" y="238" width="2" height="2" fill="#666691"/>
<rect x="84" y="252" width="2" height="2" fill="#666691"/>
<rect x="84" y="266" width="2" height="2" fill="#666691"/>
<rect x="84" y="280" width="2" height="2" fill="#666691"/>
<rect x="84" y="294" width="2" height="2" fill="#666691"/>
<rect x="84" y="308" width="2" height="2" fill="#666691"/>
<rect x="84" y="322" width="2" height="2" fill="#666691"/>
<rect x="84" y="336" width="2" height="2" fill="#666691"/>
<rect x="98" width="2" height="2" fill="#666691"/>
<rect x="98" y="14" width="2" height="2" fill="#666691"/>
<rect x="98" y="14" width="2" height="2" fill="#666691"/>
<rect x="98" y="28" width="2" height="2" fill="#666691"/>
<rect x="98" y="42" width="2" height="2" fill="#666691"/>
<rect x="98" y="56" width="2" height="2" fill="#666691"/>
<rect x="98" y="70" width="2" height="2" fill="#666691"/>
<rect x="98" y="84" width="2" height="2" fill="#666691"/>
<rect x="98" y="98" width="2" height="2" fill="#666691"/>
<rect x="98" y="112" width="2" height="2" fill="#666691"/>
<rect x="98" y="126" width="2" height="2" fill="#666691"/>
<rect x="98" y="140" width="2" height="2" fill="#666691"/>
<rect x="98" y="154" width="2" height="2" fill="#666691"/>
<rect x="98" y="168" width="2" height="2" fill="#666691"/>
<rect x="98" y="182" width="2" height="2" fill="#666691"/>
<rect x="98" y="196" width="2" height="2" fill="#666691"/>
<rect x="98" y="210" width="2" height="2" fill="#666691"/>
<rect x="98" y="224" width="2" height="2" fill="#666691"/>
<rect x="98" y="238" width="2" height="2" fill="#666691"/>
<rect x="98" y="252" width="2" height="2" fill="#666691"/>
<rect x="98" y="266" width="2" height="2" fill="#666691"/>
<rect x="98" y="280" width="2" height="2" fill="#666691"/>
<rect x="98" y="294" width="2" height="2" fill="#666691"/>
<rect x="98" y="308" width="2" height="2" fill="#666691"/>
<rect x="98" y="322" width="2" height="2" fill="#666691"/>
<rect x="98" y="336" width="2" height="2" fill="#666691"/>
<rect x="112" width="2" height="2" fill="#666691"/>
<rect x="112" y="14" width="2" height="2" fill="#666691"/>
<rect x="112" y="14" width="2" height="2" fill="#666691"/>
<rect x="112" y="28" width="2" height="2" fill="#666691"/>
<rect x="112" y="42" width="2" height="2" fill="#666691"/>
<rect x="112" y="56" width="2" height="2" fill="#666691"/>
<rect x="112" y="70" width="2" height="2" fill="#666691"/>
<rect x="112" y="84" width="2" height="2" fill="#666691"/>
<rect x="112" y="98" width="2" height="2" fill="#666691"/>
<rect x="112" y="112" width="2" height="2" fill="#666691"/>
<rect x="112" y="126" width="2" height="2" fill="#666691"/>
<rect x="112" y="140" width="2" height="2" fill="#666691"/>
<rect x="112" y="154" width="2" height="2" fill="#666691"/>
<rect x="112" y="168" width="2" height="2" fill="#666691"/>
<rect x="112" y="182" width="2" height="2" fill="#666691"/>
<rect x="112" y="196" width="2" height="2" fill="#666691"/>
<rect x="112" y="210" width="2" height="2" fill="#666691"/>
<rect x="112" y="224" width="2" height="2" fill="#666691"/>
<rect x="112" y="238" width="2" height="2" fill="#666691"/>
<rect x="112" y="252" width="2" height="2" fill="#666691"/>
<rect x="112" y="266" width="2" height="2" fill="#666691"/>
<rect x="112" y="280" width="2" height="2" fill="#666691"/>
<rect x="112" y="294" width="2" height="2" fill="#666691"/>
<rect x="112" y="308" width="2" height="2" fill="#666691"/>
<rect x="112" y="322" width="2" height="2" fill="#666691"/>
<rect x="112" y="336" width="2" height="2" fill="#666691"/>
<rect x="126" width="2" height="2" fill="#666691"/>
<rect x="126" y="14" width="2" height="2" fill="#666691"/>
<rect x="126" y="14" width="2" height="2" fill="#666691"/>
<rect x="126" y="28" width="2" height="2" fill="#666691"/>
<rect x="126" y="42" width="2" height="2" fill="#666691"/>
<rect x="126" y="56" width="2" height="2" fill="#666691"/>
<rect x="126" y="70" width="2" height="2" fill="#666691"/>
<rect x="126" y="84" width="2" height="2" fill="#666691"/>
<rect x="126" y="98" width="2" height="2" fill="#666691"/>
<rect x="126" y="112" width="2" height="2" fill="#666691"/>
<rect x="126" y="126" width="2" height="2" fill="#666691"/>
<rect x="126" y="140" width="2" height="2" fill="#666691"/>
<rect x="126" y="154" width="2" height="2" fill="#666691"/>
<rect x="126" y="168" width="2" height="2" fill="#666691"/>
<rect x="126" y="182" width="2" height="2" fill="#666691"/>
<rect x="126" y="196" width="2" height="2" fill="#666691"/>
<rect x="126" y="210" width="2" height="2" fill="#666691"/>
<rect x="126" y="224" width="2" height="2" fill="#666691"/>
<rect x="126" y="238" width="2" height="2" fill="#666691"/>
<rect x="126" y="252" width="2" height="2" fill="#666691"/>
<rect x="126" y="266" width="2" height="2" fill="#666691"/>
<rect x="126" y="280" width="2" height="2" fill="#666691"/>
<rect x="126" y="294" width="2" height="2" fill="#666691"/>
<rect x="126" y="308" width="2" height="2" fill="#666691"/>
<rect x="126" y="322" width="2" height="2" fill="#666691"/>
<rect x="126" y="336" width="2" height="2" fill="#666691"/>
<rect x="140" width="2" height="2" fill="#666691"/>
<rect x="140" y="14" width="2" height="2" fill="#666691"/>
<rect x="140" y="14" width="2" height="2" fill="#666691"/>
<rect x="140" y="28" width="2" height="2" fill="#666691"/>
<rect x="140" y="42" width="2" height="2" fill="#666691"/>
<rect x="140" y="56" width="2" height="2" fill="#666691"/>
<rect x="140" y="70" width="2" height="2" fill="#666691"/>
<rect x="140" y="84" width="2" height="2" fill="#666691"/>
<rect x="140" y="98" width="2" height="2" fill="#666691"/>
<rect x="140" y="112" width="2" height="2" fill="#666691"/>
<rect x="140" y="126" width="2" height="2" fill="#666691"/>
<rect x="140" y="140" width="2" height="2" fill="#666691"/>
<rect x="140" y="154" width="2" height="2" fill="#666691"/>
<rect x="140" y="168" width="2" height="2" fill="#666691"/>
<rect x="140" y="182" width="2" height="2" fill="#666691"/>
<rect x="140" y="196" width="2" height="2" fill="#666691"/>
<rect x="140" y="210" width="2" height="2" fill="#666691"/>
<rect x="140" y="224" width="2" height="2" fill="#666691"/>
<rect x="140" y="238" width="2" height="2" fill="#666691"/>
<rect x="140" y="252" width="2" height="2" fill="#666691"/>
<rect x="140" y="266" width="2" height="2" fill="#666691"/>
<rect x="140" y="280" width="2" height="2" fill="#666691"/>
<rect x="140" y="294" width="2" height="2" fill="#666691"/>
<rect x="140" y="308" width="2" height="2" fill="#666691"/>
<rect x="140" y="322" width="2" height="2" fill="#666691"/>
<rect x="140" y="336" width="2" height="2" fill="#666691"/>
<rect x="154" width="2" height="2" fill="#666691"/>
<rect x="154" y="14" width="2" height="2" fill="#666691"/>
<rect x="154" y="14" width="2" height="2" fill="#666691"/>
<rect x="154" y="28" width="2" height="2" fill="#666691"/>
<rect x="154" y="42" width="2" height="2" fill="#666691"/>
<rect x="154" y="56" width="2" height="2" fill="#666691"/>
<rect x="154" y="70" width="2" height="2" fill="#666691"/>
<rect x="154" y="84" width="2" height="2" fill="#666691"/>
<rect x="154" y="98" width="2" height="2" fill="#666691"/>
<rect x="154" y="112" width="2" height="2" fill="#666691"/>
<rect x="154" y="126" width="2" height="2" fill="#666691"/>
<rect x="154" y="140" width="2" height="2" fill="#666691"/>
<rect x="154" y="154" width="2" height="2" fill="#666691"/>
<rect x="154" y="168" width="2" height="2" fill="#666691"/>
<rect x="154" y="182" width="2" height="2" fill="#666691"/>
<rect x="154" y="196" width="2" height="2" fill="#666691"/>
<rect x="154" y="210" width="2" height="2" fill="#666691"/>
<rect x="154" y="224" width="2" height="2" fill="#666691"/>
<rect x="154" y="238" width="2" height="2" fill="#666691"/>
<rect x="154" y="252" width="2" height="2" fill="#666691"/>
<rect x="154" y="266" width="2" height="2" fill="#666691"/>
<rect x="154" y="280" width="2" height="2" fill="#666691"/>
<rect x="154" y="294" width="2" height="2" fill="#666691"/>
<rect x="154" y="308" width="2" height="2" fill="#666691"/>
<rect x="154" y="322" width="2" height="2" fill="#666691"/>
<rect x="154" y="336" width="2" height="2" fill="#666691"/>
<rect x="168" width="2" height="2" fill="#666691"/>
<rect x="168" y="14" width="2" height="2" fill="#666691"/>
<rect x="168" y="14" width="2" height="2" fill="#666691"/>
<rect x="168" y="28" width="2" height="2" fill="#666691"/>
<rect x="168" y="42" width="2" height="2" fill="#666691"/>
<rect x="168" y="56" width="2" height="2" fill="#666691"/>
<rect x="168" y="70" width="2" height="2" fill="#666691"/>
<rect x="168" y="84" width="2" height="2" fill="#666691"/>
<rect x="168" y="98" width="2" height="2" fill="#666691"/>
<rect x="168" y="112" width="2" height="2" fill="#666691"/>
<rect x="168" y="126" width="2" height="2" fill="#666691"/>
<rect x="168" y="140" width="2" height="2" fill="#666691"/>
<rect x="168" y="154" width="2" height="2" fill="#666691"/>
<rect x="168" y="168" width="2" height="2" fill="#666691"/>
<rect x="168" y="182" width="2" height="2" fill="#666691"/>
<rect x="168" y="196" width="2" height="2" fill="#666691"/>
<rect x="168" y="210" width="2" height="2" fill="#666691"/>
<rect x="168" y="224" width="2" height="2" fill="#666691"/>
<rect x="168" y="238" width="2" height="2" fill="#666691"/>
<rect x="168" y="252" width="2" height="2" fill="#666691"/>
<rect x="168" y="266" width="2" height="2" fill="#666691"/>
<rect x="168" y="280" width="2" height="2" fill="#666691"/>
<rect x="168" y="294" width="2" height="2" fill="#666691"/>
<rect x="168" y="308" width="2" height="2" fill="#666691"/>
<rect x="168" y="322" width="2" height="2" fill="#666691"/>
<rect x="168" y="336" width="2" height="2" fill="#666691"/>
<rect x="182" width="2" height="2" fill="#666691"/>
<rect x="182" y="14" width="2" height="2" fill="#666691"/>
<rect x="182" y="14" width="2" height="2" fill="#666691"/>
<rect x="182" y="28" width="2" height="2" fill="#666691"/>
<rect x="182" y="42" width="2" height="2" fill="#666691"/>
<rect x="182" y="56" width="2" height="2" fill="#666691"/>
<rect x="182" y="70" width="2" height="2" fill="#666691"/>
<rect x="182" y="84" width="2" height="2" fill="#666691"/>
<rect x="182" y="98" width="2" height="2" fill="#666691"/>
<rect x="182" y="112" width="2" height="2" fill="#666691"/>
<rect x="182" y="126" width="2" height="2" fill="#666691"/>
<rect x="182" y="140" width="2" height="2" fill="#666691"/>
<rect x="182" y="154" width="2" height="2" fill="#666691"/>
<rect x="182" y="168" width="2" height="2" fill="#666691"/>
<rect x="182" y="182" width="2" height="2" fill="#666691"/>
<rect x="182" y="196" width="2" height="2" fill="#666691"/>
<rect x="182" y="210" width="2" height="2" fill="#666691"/>
<rect x="182" y="224" width="2" height="2" fill="#666691"/>
<rect x="182" y="238" width="2" height="2" fill="#666691"/>
<rect x="182" y="252" width="2" height="2" fill="#666691"/>
<rect x="182" y="266" width="2" height="2" fill="#666691"/>
<rect x="182" y="280" width="2" height="2" fill="#666691"/>
<rect x="182" y="294" width="2" height="2" fill="#666691"/>
<rect x="182" y="308" width="2" height="2" fill="#666691"/>
<rect x="182" y="322" width="2" height="2" fill="#666691"/>
<rect x="182" y="336" width="2" height="2" fill="#666691"/>
<rect x="196" width="2" height="2" fill="#666691"/>
<rect x="196" y="14" width="2" height="2" fill="#666691"/>
<rect x="196" y="14" width="2" height="2" fill="#666691"/>
<rect x="196" y="28" width="2" height="2" fill="#666691"/>
<rect x="196" y="42" width="2" height="2" fill="#666691"/>
<rect x="196" y="56" width="2" height="2" fill="#666691"/>
<rect x="196" y="70" width="2" height="2" fill="#666691"/>
<rect x="196" y="84" width="2" height="2" fill="#666691"/>
<rect x="196" y="98" width="2" height="2" fill="#666691"/>
<rect x="196" y="112" width="2" height="2" fill="#666691"/>
<rect x="196" y="126" width="2" height="2" fill="#666691"/>
<rect x="196" y="140" width="2" height="2" fill="#666691"/>
<rect x="196" y="154" width="2" height="2" fill="#666691"/>
<rect x="196" y="168" width="2" height="2" fill="#666691"/>
<rect x="196" y="182" width="2" height="2" fill="#666691"/>
<rect x="196" y="196" width="2" height="2" fill="#666691"/>
<rect x="196" y="210" width="2" height="2" fill="#666691"/>
<rect x="196" y="224" width="2" height="2" fill="#666691"/>
<rect x="196" y="238" width="2" height="2" fill="#666691"/>
<rect x="196" y="252" width="2" height="2" fill="#666691"/>
<rect x="196" y="266" width="2" height="2" fill="#666691"/>
<rect x="196" y="280" width="2" height="2" fill="#666691"/>
<rect x="196" y="294" width="2" height="2" fill="#666691"/>
<rect x="196" y="308" width="2" height="2" fill="#666691"/>
<rect x="196" y="322" width="2" height="2" fill="#666691"/>
<rect x="196" y="336" width="2" height="2" fill="#666691"/>
<rect x="210" width="2" height="2" fill="#666691"/>
<rect x="210" y="14" width="2" height="2" fill="#666691"/>
<rect x="210" y="14" width="2" height="2" fill="#666691"/>
<rect x="210" y="28" width="2" height="2" fill="#666691"/>
<rect x="210" y="42" width="2" height="2" fill="#666691"/>
<rect x="210" y="56" width="2" height="2" fill="#666691"/>
<rect x="210" y="70" width="2" height="2" fill="#666691"/>
<rect x="210" y="84" width="2" height="2" fill="#666691"/>
<rect x="210" y="98" width="2" height="2" fill="#666691"/>
<rect x="210" y="112" width="2" height="2" fill="#666691"/>
<rect x="210" y="126" width="2" height="2" fill="#666691"/>
<rect x="210" y="140" width="2" height="2" fill="#666691"/>
<rect x="210" y="154" width="2" height="2" fill="#666691"/>
<rect x="210" y="168" width="2" height="2" fill="#666691"/>
<rect x="210" y="182" width="2" height="2" fill="#666691"/>
<rect x="210" y="196" width="2" height="2" fill="#666691"/>
<rect x="210" y="210" width="2" height="2" fill="#666691"/>
<rect x="210" y="224" width="2" height="2" fill="#666691"/>
<rect x="210" y="238" width="2" height="2" fill="#666691"/>
<rect x="210" y="252" width="2" height="2" fill="#666691"/>
<rect x="210" y="266" width="2" height="2" fill="#666691"/>
<rect x="210" y="280" width="2" height="2" fill="#666691"/>
<rect x="210" y="294" width="2" height="2" fill="#666691"/>
<rect x="210" y="308" width="2" height="2" fill="#666691"/>
<rect x="210" y="322" width="2" height="2" fill="#666691"/>
<rect x="210" y="336" width="2" height="2" fill="#666691"/>
<rect x="224" width="2" height="2" fill="#666691"/>
<rect x="224" y="14" width="2" height="2" fill="#666691"/>
<rect x="224" y="14" width="2" height="2" fill="#666691"/>
<rect x="224" y="28" width="2" height="2" fill="#666691"/>
<rect x="224" y="42" width="2" height="2" fill="#666691"/>
<rect x="224" y="56" width="2" height="2" fill="#666691"/>
<rect x="224" y="70" width="2" height="2" fill="#666691"/>
<rect x="224" y="84" width="2" height="2" fill="#666691"/>
<rect x="224" y="98" width="2" height="2" fill="#666691"/>
<rect x="224" y="112" width="2" height="2" fill="#666691"/>
<rect x="224" y="126" width="2" height="2" fill="#666691"/>
<rect x="224" y="140" width="2" height="2" fill="#666691"/>
<rect x="224" y="154" width="2" height="2" fill="#666691"/>
<rect x="224" y="168" width="2" height="2" fill="#666691"/>
<rect x="224" y="182" width="2" height="2" fill="#666691"/>
<rect x="224" y="196" width="2" height="2" fill="#666691"/>
<rect x="224" y="210" width="2" height="2" fill="#666691"/>
<rect x="224" y="224" width="2" height="2" fill="#666691"/>
<rect x="224" y="238" width="2" height="2" fill="#666691"/>
<rect x="224" y="252" width="2" height="2" fill="#666691"/>
<rect x="224" y="266" width="2" height="2" fill="#666691"/>
<rect x="224" y="280" width="2" height="2" fill="#666691"/>
<rect x="224" y="294" width="2" height="2" fill="#666691"/>
<rect x="224" y="308" width="2" height="2" fill="#666691"/>
<rect x="224" y="322" width="2" height="2" fill="#666691"/>
<rect x="224" y="336" width="2" height="2" fill="#666691"/>
<rect x="238" width="2" height="2" fill="#666691"/>
<rect x="238" y="14" width="2" height="2" fill="#666691"/>
<rect x="238" y="14" width="2" height="2" fill="#666691"/>
<rect x="238" y="28" width="2" height="2" fill="#666691"/>
<rect x="238" y="42" width="2" height="2" fill="#666691"/>
<rect x="238" y="56" width="2" height="2" fill="#666691"/>
<rect x="238" y="70" width="2" height="2" fill="#666691"/>
<rect x="238" y="84" width="2" height="2" fill="#666691"/>
<rect x="238" y="98" width="2" height="2" fill="#666691"/>
<rect x="238" y="112" width="2" height="2" fill="#666691"/>
<rect x="238" y="126" width="2" height="2" fill="#666691"/>
<rect x="238" y="140" width="2" height="2" fill="#666691"/>
<rect x="238" y="154" width="2" height="2" fill="#666691"/>
<rect x="238" y="168" width="2" height="2" fill="#666691"/>
<rect x="238" y="182" width="2" height="2" fill="#666691"/>
<rect x="238" y="196" width="2" height="2" fill="#666691"/>
<rect x="238" y="210" width="2" height="2" fill="#666691"/>
<rect x="238" y="224" width="2" height="2" fill="#666691"/>
<rect x="238" y="238" width="2" height="2" fill="#666691"/>
<rect x="238" y="252" width="2" height="2" fill="#666691"/>
<rect x="238" y="266" width="2" height="2" fill="#666691"/>
<rect x="238" y="280" width="2" height="2" fill="#666691"/>
<rect x="238" y="294" width="2" height="2" fill="#666691"/>
<rect x="238" y="308" width="2" height="2" fill="#666691"/>
<rect x="238" y="322" width="2" height="2" fill="#666691"/>
<rect x="238" y="336" width="2" height="2" fill="#666691"/>
<rect x="252" width="2" height="2" fill="#666691"/>
<rect x="252" y="14" width="2" height="2" fill="#666691"/>
<rect x="252" y="14" width="2" height="2" fill="#666691"/>
<rect x="252" y="28" width="2" height="2" fill="#666691"/>
<rect x="252" y="42" width="2" height="2" fill="#666691"/>
<rect x="252" y="56" width="2" height="2" fill="#666691"/>
<rect x="252" y="70" width="2" height="2" fill="#666691"/>
<rect x="252" y="84" width="2" height="2" fill="#666691"/>
<rect x="252" y="98" width="2" height="2" fill="#666691"/>
<rect x="252" y="112" width="2" height="2" fill="#666691"/>
<rect x="252" y="126" width="2" height="2" fill="#666691"/>
<rect x="252" y="140" width="2" height="2" fill="#666691"/>
<rect x="252" y="154" width="2" height="2" fill="#666691"/>
<rect x="252" y="168" width="2" height="2" fill="#666691"/>
<rect x="252" y="182" width="2" height="2" fill="#666691"/>
<rect x="252" y="196" width="2" height="2" fill="#666691"/>
<rect x="252" y="210" width="2" height="2" fill="#666691"/>
<rect x="252" y="224" width="2" height="2" fill="#666691"/>
<rect x="252" y="238" width="2" height="2" fill="#666691"/>
<rect x="252" y="252" width="2" height="2" fill="#666691"/>
<rect x="252" y="266" width="2" height="2" fill="#666691"/>
<rect x="252" y="280" width="2" height="2" fill="#666691"/>
<rect x="252" y="294" width="2" height="2" fill="#666691"/>
<rect x="252" y="308" width="2" height="2" fill="#666691"/>
<rect x="252" y="322" width="2" height="2" fill="#666691"/>
<rect x="252" y="336" width="2" height="2" fill="#666691"/>
<rect x="266" width="2" height="2" fill="#666691"/>
<rect x="266" y="14" width="2" height="2" fill="#666691"/>
<rect x="266" y="14" width="2" height="2" fill="#666691"/>
<rect x="266" y="28" width="2" height="2" fill="#666691"/>
<rect x="266" y="42" width="2" height="2" fill="#666691"/>
<rect x="266" y="56" width="2" height="2" fill="#666691"/>
<rect x="266" y="70" width="2" height="2" fill="#666691"/>
<rect x="266" y="84" width="2" height="2" fill="#666691"/>
<rect x="266" y="98" width="2" height="2" fill="#666691"/>
<rect x="266" y="112" width="2" height="2" fill="#666691"/>
<rect x="266" y="126" width="2" height="2" fill="#666691"/>
<rect x="266" y="140" width="2" height="2" fill="#666691"/>
<rect x="266" y="154" width="2" height="2" fill="#666691"/>
<rect x="266" y="168" width="2" height="2" fill="#666691"/>
<rect x="266" y="182" width="2" height="2" fill="#666691"/>
<rect x="266" y="196" width="2" height="2" fill="#666691"/>
<rect x="266" y="210" width="2" height="2" fill="#666691"/>
<rect x="266" y="224" width="2" height="2" fill="#666691"/>
<rect x="266" y="238" width="2" height="2" fill="#666691"/>
<rect x="266" y="252" width="2" height="2" fill="#666691"/>
<rect x="266" y="266" width="2" height="2" fill="#666691"/>
<rect x="266" y="280" width="2" height="2" fill="#666691"/>
<rect x="266" y="294" width="2" height="2" fill="#666691"/>
<rect x="266" y="308" width="2" height="2" fill="#666691"/>
<rect x="266" y="322" width="2" height="2" fill="#666691"/>
<rect x="266" y="336" width="2" height="2" fill="#666691"/>
<rect x="280" width="2" height="2" fill="#666691"/>
<rect x="280" y="14" width="2" height="2" fill="#666691"/>
<rect x="280" y="14" width="2" height="2" fill="#666691"/>
<rect x="280" y="28" width="2" height="2" fill="#666691"/>
<rect x="280" y="42" width="2" height="2" fill="#666691"/>
<rect x="280" y="56" width="2" height="2" fill="#666691"/>
<rect x="280" y="70" width="2" height="2" fill="#666691"/>
<rect x="280" y="84" width="2" height="2" fill="#666691"/>
<rect x="280" y="98" width="2" height="2" fill="#666691"/>
<rect x="280" y="112" width="2" height="2" fill="#666691"/>
<rect x="280" y="126" width="2" height="2" fill="#666691"/>
<rect x="280" y="140" width="2" height="2" fill="#666691"/>
<rect x="280" y="154" width="2" height="2" fill="#666691"/>
<rect x="280" y="168" width="2" height="2" fill="#666691"/>
<rect x="280" y="182" width="2" height="2" fill="#666691"/>
<rect x="280" y="196" width="2" height="2" fill="#666691"/>
<rect x="280" y="210" width="2" height="2" fill="#666691"/>
<rect x="280" y="224" width="2" height="2" fill="#666691"/>
<rect x="280" y="238" width="2" height="2" fill="#666691"/>
<rect x="280" y="252" width="2" height="2" fill="#666691"/>
<rect x="280" y="266" width="2" height="2" fill="#666691"/>
<rect x="280" y="280" width="2" height="2" fill="#666691"/>
<rect x="280" y="294" width="2" height="2" fill="#666691"/>
<rect x="280" y="308" width="2" height="2" fill="#666691"/>
<rect x="280" y="322" width="2" height="2" fill="#666691"/>
<rect x="280" y="336" width="2" height="2" fill="#666691"/>
<rect x="294" width="2" height="2" fill="#666691"/>
<rect x="294" y="14" width="2" height="2" fill="#666691"/>
<rect x="294" y="14" width="2" height="2" fill="#666691"/>
<rect x="294" y="28" width="2" height="2" fill="#666691"/>
<rect x="294" y="42" width="2" height="2" fill="#666691"/>
<rect x="294" y="56" width="2" height="2" fill="#666691"/>
<rect x="294" y="70" width="2" height="2" fill="#666691"/>
<rect x="294" y="84" width="2" height="2" fill="#666691"/>
<rect x="294" y="98" width="2" height="2" fill="#666691"/>
<rect x="294" y="112" width="2" height="2" fill="#666691"/>
<rect x="294" y="126" width="2" height="2" fill="#666691"/>
<rect x="294" y="140" width="2" height="2" fill="#666691"/>
<rect x="294" y="154" width="2" height="2" fill="#666691"/>
<rect x="294" y="168" width="2" height="2" fill="#666691"/>
<rect x="294" y="182" width="2" height="2" fill="#666691"/>
<rect x="294" y="196" width="2" height="2" fill="#666691"/>
<rect x="294" y="210" width="2" height="2" fill="#666691"/>
<rect x="294" y="224" width="2" height="2" fill="#666691"/>
<rect x="294" y="238" width="2" height="2" fill="#666691"/>
<rect x="294" y="252" width="2" height="2" fill="#666691"/>
<rect x="294" y="266" width="2" height="2" fill="#666691"/>
<rect x="294" y="280" width="2" height="2" fill="#666691"/>
<rect x="294" y="294" width="2" height="2" fill="#666691"/>
<rect x="294" y="308" width="2" height="2" fill="#666691"/>
<rect x="294" y="322" width="2" height="2" fill="#666691"/>
<rect x="294" y="336" width="2" height="2" fill="#666691"/>
<rect x="308" width="2" height="2" fill="#666691"/>
<rect x="308" y="14" width="2" height="2" fill="#666691"/>
<rect x="308" y="14" width="2" height="2" fill="#666691"/>
<rect x="308" y="28" width="2" height="2" fill="#666691"/>
<rect x="308" y="42" width="2" height="2" fill="#666691"/>
<rect x="308" y="56" width="2" height="2" fill="#666691"/>
<rect x="308" y="70" width="2" height="2" fill="#666691"/>
<rect x="308" y="84" width="2" height="2" fill="#666691"/>
<rect x="308" y="98" width="2" height="2" fill="#666691"/>
<rect x="308" y="112" width="2" height="2" fill="#666691"/>
<rect x="308" y="126" width="2" height="2" fill="#666691"/>
<rect x="308" y="140" width="2" height="2" fill="#666691"/>
<rect x="308" y="154" width="2" height="2" fill="#666691"/>
<rect x="308" y="168" width="2" height="2" fill="#666691"/>
<rect x="308" y="182" width="2" height="2" fill="#666691"/>
<rect x="308" y="196" width="2" height="2" fill="#666691"/>
<rect x="308" y="210" width="2" height="2" fill="#666691"/>
<rect x="308" y="224" width="2" height="2" fill="#666691"/>
<rect x="308" y="238" width="2" height="2" fill="#666691"/>
<rect x="308" y="252" width="2" height="2" fill="#666691"/>
<rect x="308" y="266" width="2" height="2" fill="#666691"/>
<rect x="308" y="280" width="2" height="2" fill="#666691"/>
<rect x="308" y="294" width="2" height="2" fill="#666691"/>
<rect x="308" y="308" width="2" height="2" fill="#666691"/>
<rect x="308" y="322" width="2" height="2" fill="#666691"/>
<rect x="308" y="336" width="2" height="2" fill="#666691"/>
<rect x="322" width="2" height="2" fill="#666691"/>
<rect x="322" y="14" width="2" height="2" fill="#666691"/>
<rect x="322" y="14" width="2" height="2" fill="#666691"/>
<rect x="322" y="28" width="2" height="2" fill="#666691"/>
<rect x="322" y="42" width="2" height="2" fill="#666691"/>
<rect x="322" y="56" width="2" height="2" fill="#666691"/>
<rect x="322" y="70" width="2" height="2" fill="#666691"/>
<rect x="322" y="84" width="2" height="2" fill="#666691"/>
<rect x="322" y="98" width="2" height="2" fill="#666691"/>
<rect x="322" y="112" width="2" height="2" fill="#666691"/>
<rect x="322" y="126" width="2" height="2" fill="#666691"/>
<rect x="322" y="140" width="2" height="2" fill="#666691"/>
<rect x="322" y="154" width="2" height="2" fill="#666691"/>
<rect x="322" y="168" width="2" height="2" fill="#666691"/>
<rect x="322" y="182" width="2" height="2" fill="#666691"/>
<rect x="322" y="196" width="2" height="2" fill="#666691"/>
<rect x="322" y="210" width="2" height="2" fill="#666691"/>
<rect x="322" y="224" width="2" height="2" fill="#666691"/>
<rect x="322" y="238" width="2" height="2" fill="#666691"/>
<rect x="322" y="252" width="2" height="2" fill="#666691"/>
<rect x="322" y="266" width="2" height="2" fill="#666691"/>
<rect x="322" y="280" width="2" height="2" fill="#666691"/>
<rect x="322" y="294" width="2" height="2" fill="#666691"/>
<rect x="322" y="308" width="2" height="2" fill="#666691"/>
<rect x="322" y="322" width="2" height="2" fill="#666691"/>
<rect x="322" y="336" width="2" height="2" fill="#666691"/>
<rect x="336" width="2" height="2" fill="#666691"/>
<rect x="336" y="14" width="2" height="2" fill="#666691"/>
<rect x="336" y="14" width="2" height="2" fill="#666691"/>
<rect x="336" y="28" width="2" height="2" fill="#666691"/>
<rect x="336" y="42" width="2" height="2" fill="#666691"/>
<rect x="336" y="56" width="2" height="2" fill="#666691"/>
<rect x="336" y="70" width="2" height="2" fill="#666691"/>
<rect x="336" y="84" width="2" height="2" fill="#666691"/>
<rect x="336" y="98" width="2" height="2" fill="#666691"/>
<rect x="336" y="112" width="2" height="2" fill="#666691"/>
<rect x="336" y="126" width="2" height="2" fill="#666691"/>
<rect x="336" y="140" width="2" height="2" fill="#666691"/>
<rect x="336" y="154" width="2" height="2" fill="#666691"/>
<rect x="336" y="168" width="2" height="2" fill="#666691"/>
<rect x="336" y="182" width="2" height="2" fill="#666691"/>
<rect x="336" y="196" width="2" height="2" fill="#666691"/>
<rect x="336" y="210" width="2" height="2" fill="#666691"/>
<rect x="336" y="224" width="2" height="2" fill="#666691"/>
<rect x="336" y="238" width="2" height="2" fill="#666691"/>
<rect x="336" y="252" width="2" height="2" fill="#666691"/>
<rect x="336" y="266" width="2" height="2" fill="#666691"/>
<rect x="336" y="280" width="2" height="2" fill="#666691"/>
<rect x="336" y="294" width="2" height="2" fill="#666691"/>
<rect x="336" y="308" width="2" height="2" fill="#666691"/>
<rect x="336" y="322" width="2" height="2" fill="#666691"/>
<rect x="336" y="336" width="2" height="2" fill="#666691"/>
</g>
</pattern></defs>
</svg>
