<svg width="44" height="68" viewBox="0 0 44 68" fill="none" xmlns="http://www.w3.org/2000/svg">
<path d="M27.064 16.0002H23.992L19.016 7.36017H18.952C18.9733 7.72284 18.9893 8.08551 19 8.44817C19.0213 8.81084 19.0373 9.17351 19.048 9.53617C19.0693 9.89884 19.0853 10.2615 19.096 10.6242V16.0002H16.936V4.57617H19.992L24.952 13.1362H25C24.9893 12.7842 24.9787 12.4322 24.968 12.0802C24.9573 11.7282 24.9413 11.3815 24.92 11.0402C24.9093 10.6882 24.8987 10.3362 24.888 9.98417V4.57617H27.064V16.0002Z" fill="#000047"/>
<path d="M22.5303 22.4697C22.2374 22.1768 21.7626 22.1768 21.4697 22.4697L16.6967 27.2426C16.4038 27.5355 16.4038 28.0104 16.6967 28.3033C16.9896 28.5962 17.4645 28.5962 17.7574 28.3033L22 24.0607L26.2426 28.3033C26.5355 28.5962 27.0104 28.5962 27.3033 28.3033C27.5962 28.0104 27.5962 27.5355 27.3033 27.2426L22.5303 22.4697ZM21.4697 65.5303C21.7626 65.8232 22.2374 65.8232 22.5303 65.5303L27.3033 60.7574C27.5962 60.4645 27.5962 59.9896 27.3033 59.6967C27.0104 59.4038 26.5355 59.4038 26.2426 59.6967L22 63.9393L17.7574 59.6967C17.4645 59.4038 16.9896 59.4038 16.6967 59.6967C16.4038 59.9896 16.4038 60.4645 16.6967 60.7574L21.4697 65.5303ZM22 23H21.25V65H22H22.75V23H22Z" fill="#000047"/>
<path d="M0.46967 43.4697C0.176777 43.7626 0.176777 44.2374 0.46967 44.5303L5.24264 49.3033C5.53553 49.5962 6.01041 49.5962 6.3033 49.3033C6.59619 49.0104 6.59619 48.5355 6.3033 48.2426L2.06066 44L6.3033 39.7574C6.59619 39.4645 6.59619 38.9896 6.3033 38.6967C6.01041 38.4038 5.53553 38.4038 5.24264 38.6967L0.46967 43.4697ZM43.5303 44.5303C43.8232 44.2374 43.8232 43.7626 43.5303 43.4697L38.7574 38.6967C38.4645 38.4038 37.9896 38.4038 37.6967 38.6967C37.4038 38.9896 37.4038 39.4645 37.6967 39.7574L41.9393 44L37.6967 48.2426C37.4038 48.5355 37.4038 49.0104 37.6967 49.3033C37.9896 49.5962 38.4645 49.5962 38.7574 49.3033L43.5303 44.5303ZM1 44V44.75H43V44V43.25H1V44Z" fill="#000047"/>
</svg>
