<svg width="20" height="24" viewBox="0 0 20 24" fill="none" xmlns="http://www.w3.org/2000/svg">
<g clip-path="url(#clip0_1095_4655)">
<path d="M15.2715 0.25C15.3908 0.25 15.499 0.293516 15.585 0.363281C15.5984 0.374173 15.6127 0.384146 15.625 0.396484L19.168 3.93945C19.2585 4.02993 19.3145 4.15492 19.3145 4.29297V17.3203C19.3145 18.1153 18.672 18.7578 17.877 18.7578H14.0879V22.5479C14.0879 23.3429 13.4454 23.9854 12.6504 23.9854H1.6875C0.892488 23.9854 0.25 23.3429 0.25 22.5479V6.91504C0.25 6.12003 0.892488 5.47754 1.6875 5.47754H5.47656V1.6875C5.47656 0.892488 6.11905 0.25 6.91406 0.25H15.2715ZM6.91406 1.25C6.67134 1.25 6.47656 1.44477 6.47656 1.6875V11.5518C6.47637 11.8277 6.25259 12.0518 5.97656 12.0518C5.70054 12.0518 5.47675 11.8277 5.47656 11.5518V6.47754H1.6875C1.44477 6.47754 1.25 6.67231 1.25 6.91504V22.5479C1.25 22.7906 1.44477 22.9854 1.6875 22.9854H12.6504C12.8931 22.9854 13.0879 22.7906 13.0879 22.5479V18.7578H9.66406C9.38815 18.7576 9.16415 18.5338 9.16406 18.2578C9.16406 17.9818 9.38809 17.758 9.66406 17.7578H17.877C18.1197 17.7578 18.3145 17.563 18.3145 17.3203V4.79297H15.2715C14.9954 4.79297 14.7716 4.56904 14.7715 4.29297V1.25H6.91406ZM14.0625 7.4082C14.0952 7.4082 14.128 7.41063 14.1602 7.41699C14.2113 7.42709 14.2585 7.4473 14.3027 7.47168C14.3431 7.49389 14.3818 7.5205 14.416 7.55469C14.4499 7.58855 14.4759 7.6271 14.498 7.66699C14.5226 7.7112 14.5425 7.75844 14.5527 7.80957C14.5592 7.84209 14.5625 7.87516 14.5625 7.9082V12.5332C14.5625 12.8093 14.3386 13.0332 14.0625 13.0332C13.7866 13.033 13.5625 12.8092 13.5625 12.5332V9.11523L4.10547 18.5723C3.91022 18.7675 3.59369 18.7675 3.39844 18.5723C3.20319 18.377 3.20323 18.0605 3.39844 17.8652L12.8555 8.4082H9.44336C9.16722 8.4082 8.94336 8.18435 8.94336 7.9082C8.94336 7.63206 9.16722 7.4082 9.44336 7.4082H14.0625ZM15.7715 3.79297H17.6074L15.7715 1.95703V3.79297Z" fill="#000047"/>
</g>
<defs>
<clipPath id="clip0_1095_4655">
<rect width="20" height="24" fill="white"/>
</clipPath>
</defs>
</svg>
