<svg width="12" height="12" viewBox="0 0 12 12" fill="none" xmlns="http://www.w3.org/2000/svg">
<circle cx="6" cy="6" r="6" fill="#000047"/>
<path d="M5.51098 10V6.1H4.71098V5.04H6.91098V10H5.51098ZM6.14098 4.2C5.90764 4.2 5.70764 4.11667 5.54098 3.95C5.37431 3.78333 5.29098 3.58333 5.29098 3.35C5.29098 3.11 5.37431 2.91 5.54098 2.75C5.70764 2.58333 5.90764 2.5 6.14098 2.5C6.38098 2.5 6.58098 2.58333 6.74098 2.75C6.90764 2.91 6.99098 3.11 6.99098 3.35C6.99098 3.58333 6.90764 3.78333 6.74098 3.95C6.57431 4.11667 6.37431 4.2 6.14098 4.2Z" fill="#FFFFEB"/>
</svg>
