<svg width="15" height="15" viewBox="0 0 15 15" fill="none" xmlns="http://www.w3.org/2000/svg">
<circle cx="7.5" cy="7.5" r="7.5" fill="#000047"/>
<path d="M7.44742 5.06401C7.15142 5.06401 6.89542 4.96001 6.67942 4.75201C6.47142 4.53601 6.36742 4.28001 6.36742 3.98401C6.36742 3.68001 6.47142 3.42401 6.67942 3.21601C6.89542 3.00801 7.15142 2.90401 7.44742 2.90401C7.75142 2.90401 8.00742 3.00801 8.21542 3.21601C8.42342 3.42401 8.52742 3.68001 8.52742 3.98401C8.52742 4.28001 8.42342 4.53601 8.21542 4.75201C8.00742 4.96001 7.75142 5.06401 7.44742 5.06401ZM6.52342 12V7.44001H5.39542V6.04801H8.35942V12H6.52342Z" fill="#FFFFEB"/>
</svg>
