<svg width="35" height="44" viewBox="0 0 35 44" fill="none" xmlns="http://www.w3.org/2000/svg">
<g clip-path="url(#clip0_1095_4413)">
<path d="M13.74 39.16H20.62" stroke="#000047" stroke-width="1.5" stroke-linecap="round" stroke-linejoin="round"/>
<path d="M15 42.47H19.36" stroke="#000047" stroke-width="1.5" stroke-linecap="round" stroke-linejoin="round"/>
<path d="M17.18 35.87H14.22C13.84 35.87 13.55 35.57 13.53 35.19C13.29 28.5 9.59001 24.62 9.59001 24.62C8.31001 22.98 7.54001 20.93 7.54001 18.7C7.54001 13.38 11.86 9.06 17.18 9.06C22.5 9.06 26.82 13.38 26.82 18.7C26.82 20.94 26.05 22.99 24.77 24.62C24.77 24.62 21.07 28.5 20.83 35.19C20.82 35.57 20.52 35.87 20.14 35.87H17.18Z" stroke="#000047" stroke-width="1.5" stroke-linecap="round" stroke-linejoin="round"/>
<path d="M17.18 0.75V4.23" stroke="#000047" stroke-width="1.5" stroke-linecap="round" stroke-linejoin="round"/>
<path d="M33.65 17.28H30.17" stroke="#000047" stroke-width="1.5" stroke-linecap="round" stroke-linejoin="round"/>
<path d="M28.82 5.56L26.36 8.01" stroke="#000047" stroke-width="1.5" stroke-linecap="round" stroke-linejoin="round"/>
<path d="M0.75 17.28H4.23" stroke="#000047" stroke-width="1.5" stroke-linecap="round" stroke-linejoin="round"/>
<path d="M5.57999 5.56L8.03999 8.01" stroke="#000047" stroke-width="1.5" stroke-linecap="round" stroke-linejoin="round"/>
</g>
<defs>
<clipPath id="clip0_1095_4413">
<rect width="34.4" height="43.22" fill="white"/>
</clipPath>
</defs>
</svg>
