<svg width="451" height="6" viewBox="0 0 451 6" fill="none" xmlns="http://www.w3.org/2000/svg">
<path d="M2.02656e-05 2.66666C2.02656e-05 4.13942 1.19393 5.33332 2.66669 5.33332C4.13945 5.33332 5.33335 4.13942 5.33335 2.66666C5.33335 1.1939 4.13945 -1.0252e-05 2.66669 -1.0252e-05C1.19393 -1.0252e-05 2.02656e-05 1.1939 2.02656e-05 2.66666ZM445 2.66666C445 4.13942 446.194 5.33332 447.667 5.33332C449.139 5.33332 450.333 4.13942 450.333 2.66666C450.333 1.1939 449.139 -1.0252e-05 447.667 -1.0252e-05C446.194 -1.0252e-05 445 1.1939 445 2.66666ZM2.66669 2.66666V3.16666H447.667V2.66666V2.16666H2.66669V2.66666Z" fill="#000047"/>
</svg>
