<svg width="22" height="22" viewBox="0 0 22 22" fill="none" xmlns="http://www.w3.org/2000/svg">
<g clip-path="url(#clip0_1095_4618)">
<path d="M9.88867 2.35557C10.1648 2.35557 10.3887 2.57943 10.3887 2.85557C10.3886 3.13167 10.1648 3.35557 9.88867 3.35557H1.86621C1.52701 3.35557 1.25 3.63025 1.25 3.97178V19.9171C1.25017 20.2562 1.52479 20.5323 1.86621 20.5323H17.8115C18.1505 20.5322 18.4266 20.2584 18.4268 19.9171V11.8937C18.4269 11.6178 18.6509 11.3939 18.9268 11.3937C19.2028 11.3937 19.4266 11.6176 19.4268 11.8937V19.9171C19.4266 20.8139 18.6996 21.5322 17.8115 21.5323H1.86621C0.969252 21.5323 0.25017 20.8052 0.25 19.9171V3.97178C0.25 3.07471 0.977982 2.35557 1.86621 2.35557H9.88867ZM17.252 0.962013C18.1948 0.0194098 19.7271 0.0194602 20.6699 0.962013C21.6128 1.9049 21.6128 3.43809 20.6699 4.38096L10.7783 14.2726C10.7415 14.3094 10.6978 14.337 10.6523 14.3605L6.39648 16.6153L6.39453 16.6163C5.51506 17.0774 4.5273 16.1343 5.0127 15.2286L7.26562 10.9737L7.30566 10.9103C7.32038 10.8904 7.33695 10.8712 7.35449 10.8536L17.252 0.962013ZM19.9629 1.66904C19.4106 1.11702 18.5113 1.11697 17.959 1.66904L8.1123 11.5099L5.89551 15.6983L5.89453 15.7013C5.89211 15.7058 5.89037 15.709 5.88965 15.711C5.88926 15.7122 5.8888 15.7134 5.88867 15.714L5.89746 15.7257C5.90475 15.7329 5.91098 15.736 5.91309 15.7364H5.91504L5.92969 15.7306L10.1289 13.5069L19.9629 3.67393C20.5152 3.12159 20.5152 2.2214 19.9629 1.66904Z" fill="#000047"/>
</g>
<defs>
<clipPath id="clip0_1095_4618">
<rect width="22" height="22" fill="white"/>
</clipPath>
</defs>
</svg>
