<svg width="22" height="22" viewBox="0 0 22 22" fill="none" xmlns="http://www.w3.org/2000/svg">
<path d="M13.1382 1.64005L13.3404 1.85396L13.6293 1.79562C17.5105 0.940006 20.8812 4.5958 19.7641 8.43632L19.6774 8.71829L19.87 8.93219C22.5473 11.8977 21.1027 16.6716 17.2408 17.6244L16.9519 17.6925L16.8652 17.9744C15.6614 21.7955 10.8364 22.9234 8.10132 20.0162L7.89908 19.8023L7.61016 19.8607C3.72899 20.7163 0.358252 17.0605 1.47541 13.22L1.56209 12.938L1.36947 12.7241C-1.30786 9.75863 0.136744 4.98471 3.99865 4.03187L4.28757 3.96381L4.37425 3.68185C5.57808 -0.139231 10.4031 -1.26708 13.1382 1.64005Z" fill="#638FFF"/>
</svg>
