<svg width="162" height="25" viewBox="0 0 162 25" fill="none" xmlns="http://www.w3.org/2000/svg">
<path d="M0 10C0 4.47715 4.47715 0 10 0H152C157.523 0 162 4.47715 162 10V25H0V10Z" fill="url(#paint0_linear_1181_7374)"/>
<path d="M147.572 19.4375V9.3575H144.012V8.0175C144.652 8.0175 145.245 7.97083 145.792 7.8775C146.352 7.78417 146.832 7.5975 147.232 7.3175C147.645 7.0375 147.945 6.62417 148.132 6.0775H149.252V19.4375H147.572Z" fill="#FFFFEB"/>
<path d="M17.4507 19.6775C15.7307 19.6775 14.4174 19.0842 13.5107 17.8975C12.6174 16.6975 12.1707 14.9775 12.1707 12.7375C12.1707 10.5108 12.6174 8.80417 13.5107 7.6175C14.4174 6.43083 15.7307 5.8375 17.4507 5.8375C19.1707 5.8375 20.4774 6.43083 21.3707 7.6175C22.2774 8.80417 22.7307 10.5108 22.7307 12.7375C22.7307 14.9775 22.2774 16.6975 21.3707 17.8975C20.4774 19.0842 19.1707 19.6775 17.4507 19.6775ZM20.5707 15.6375C20.7974 14.8375 20.9107 13.8708 20.9107 12.7375C20.9107 10.9908 20.624 9.65083 20.0507 8.7175C19.4907 7.78417 18.624 7.3175 17.4507 7.3175C16.584 7.3175 15.8707 7.58417 15.3107 8.1175L20.5707 15.6375ZM17.4507 18.1975C18.3707 18.1975 19.1107 17.8975 19.6707 17.2975L14.3907 9.7175C14.2574 10.1308 14.1574 10.5908 14.0907 11.0975C14.024 11.6042 13.9907 12.1508 13.9907 12.7375C13.9907 14.4842 14.2707 15.8308 14.8307 16.7775C15.404 17.7242 16.2774 18.1975 17.4507 18.1975Z" fill="#000047"/>
<defs>
<linearGradient id="paint0_linear_1181_7374" x1="0" y1="12.5" x2="162" y2="12.5" gradientUnits="userSpaceOnUse">
<stop stop-color="#FFFFEB"/>
<stop offset="0.5" stop-color="#FFAA50"/>
<stop offset="1" stop-color="#664420"/>
</linearGradient>
</defs>
</svg>
