<svg width="26" height="15" viewBox="0 0 26 15" fill="none" xmlns="http://www.w3.org/2000/svg">
<g clip-path="url(#clip0_1095_4636)">
<path d="M12.6364 0.252075C16.7245 0.161994 20.7703 2.24176 24.8278 6.60168V6.60266C25.2934 7.10419 25.2979 7.89126 24.8268 8.3927C20.7694 12.7526 16.7245 14.8334 12.6364 14.7433C8.55897 14.6533 4.57447 12.4064 0.62854 8.42102L0.629517 8.42004C0.124058 7.91222 0.123756 7.07939 0.630493 6.57239C4.57584 2.5881 8.55959 0.342034 12.6364 0.252075ZM12.6588 1.25208C8.95068 1.33391 5.19858 3.37982 1.33948 7.27747L1.33752 7.27942C1.23528 7.38191 1.22276 7.54938 1.29944 7.66809L1.33752 7.71594L1.33948 7.7179L2.06116 8.42688C5.66685 11.8639 9.18227 13.6675 12.6588 13.7443C16.3562 13.8256 20.1469 11.9549 24.0953 7.71204L24.0983 7.70911C24.1909 7.61086 24.2059 7.4522 24.1324 7.33215L24.0953 7.28333C20.1468 3.04042 16.3563 1.17075 12.6588 1.25208ZM12.694 2.73254C15.3242 2.73263 17.4567 4.86502 17.4567 7.49524C17.4565 10.1253 15.3241 12.2578 12.694 12.2579C10.064 12.2577 7.93143 10.1253 7.93127 7.49524C7.93127 4.86508 10.0639 2.73274 12.694 2.73254ZM12.694 3.73254C10.6161 3.73274 8.93127 5.41737 8.93127 7.49524C8.93143 9.57298 10.6162 11.2577 12.694 11.2579C14.7718 11.2578 16.4565 9.57305 16.4567 7.49524C16.4567 5.4173 14.7719 3.73263 12.694 3.73254ZM12.6949 5.69836C13.6871 5.69837 14.4918 6.50305 14.4918 7.49524C14.4916 8.4872 13.687 9.29114 12.6949 9.29114C11.7029 9.29114 10.8983 8.4872 10.8981 7.49524C10.8981 6.50305 11.7028 5.69836 12.6949 5.69836Z" fill="#000047"/>
</g>
<defs>
<clipPath id="clip0_1095_4636">
<rect width="26" height="15" fill="white"/>
</clipPath>
</defs>
</svg>
