<svg width="33" height="33" viewBox="0 0 33 33" fill="none" xmlns="http://www.w3.org/2000/svg">
<path d="M2.49912 12.5871L2.82507 12.2729L2.73617 11.824C1.43239 5.79377 7.0031 0.556617 12.8553 2.29236L13.285 2.42703L13.6109 2.12776C18.1297 -2.03203 25.4043 0.212458 26.8562 6.21274L26.9599 6.66164L27.3896 6.79631C33.2122 8.66672 34.9308 16.1633 30.5009 20.4129L30.1749 20.7271L30.2638 21.176C31.5676 27.2062 25.9969 32.4434 20.1447 30.7076L19.715 30.573L19.3891 30.8722C14.8703 35.032 7.59574 32.7875 6.14379 26.7873L6.04008 26.3384L5.61043 26.2037C-0.212162 24.3333 -1.93079 16.8367 2.49912 12.5871Z" fill="#FFFFEB"/>
<path d="M14.3645 10.0002L20.7285 16.3643L14.3645 22.7283" stroke="#000047" stroke-width="2" stroke-linecap="round"/>
</svg>
