<svg width="29" height="34" viewBox="0 0 29 34" fill="none" xmlns="http://www.w3.org/2000/svg">
<path d="M8.96565 17.101L8.7759 17.0233C2.34023 14.0566 0.0158065 9.02421 0.0158071 1.86387L0.0158073 -2.53388e-06C0.0158073 -2.53388e-06 10.705 0.139792 11.7644 0.139792C21.8686 0.139793 29 7.71951 29 17.0699C29 26.4203 22.2481 34 11.7644 34C11.0054 34 2.7158e-09 33.9689 2.7158e-09 33.9689L1.48008e-07 32.307C7.2646e-07 25.6903 2.26117 19.3221 8.66521 17.2097L8.94983 17.1165L8.96565 17.101Z" fill="#FFFFEB"/>
<path d="M14.3645 11.0002L20.7285 17.3643L14.3645 23.7283" stroke="#000047" stroke-width="2" stroke-linecap="round"/>
</svg>
