<svg width="341" height="37" viewBox="0 0 341 37" fill="none" xmlns="http://www.w3.org/2000/svg">
<path d="M102.163 19.9265L102.278 19.9751C106.198 21.8321 107.614 24.9824 107.614 29.4646V30.6313C107.614 30.6313 101.103 30.5438 100.458 30.5438C94.3041 30.5438 89.9606 25.7991 89.9606 19.9459C89.9606 14.0928 94.0729 9.34801 100.458 9.34801C100.92 9.34801 107.623 9.36745 107.623 9.36745V10.4078C107.623 14.5497 106.246 18.5361 102.346 19.8584L102.172 19.9167L102.163 19.9265Z" fill="#00B34E"/>
<path d="M178.408 10.7149L178.61 10.9288L178.899 10.8704C182.78 10.0148 186.151 13.6706 185.034 17.5111L184.947 17.7931L185.14 18.007C187.817 20.9725 186.372 25.7464 182.51 26.6992L182.221 26.7673L182.135 27.0493C180.931 30.8703 176.106 31.9982 173.371 29.0911L173.169 28.8772L172.88 28.9355C168.999 29.7911 165.628 26.1353 166.745 22.2948L166.832 22.0128L166.639 21.7989C163.962 18.8335 165.406 14.0595 169.268 13.1067L169.557 13.0386L169.644 12.7567C170.848 8.93559 175.673 7.80774 178.408 10.7149Z" fill="#638FFF"/>
<path d="M282.459 9.59675C285.358 6.86492 289.884 7.02081 292.59 9.93757V9.94734L290.893 11.5479C294.801 16.0386 294.486 22.8822 290.134 26.9903C285.694 31.1905 278.722 30.9478 274.571 26.4659L281.886 19.5577C279.427 16.6263 279.656 12.247 282.459 9.59675Z" fill="#FFAA50"/>
<path d="M2.86035 30.2226V12.2934H0V9.4932H6.33707V30.2323H2.86035V30.2226ZM4.26645 5.5554C3.57303 5.5554 2.97592 5.3026 2.46549 4.77756C1.95505 4.26224 1.69502 3.65942 1.69502 2.95936C1.69502 2.25931 1.94542 1.61759 2.46549 1.12172C2.97592 0.616127 3.57303 0.373053 4.26645 0.373053C4.95987 0.373053 5.5955 0.62585 6.08667 1.12172C6.58748 1.62732 6.82825 2.23986 6.82825 2.95936C6.82825 3.67886 6.57784 4.26224 6.08667 4.77756C5.58587 5.29288 4.97913 5.5554 4.26645 5.5554Z" fill="#000047"/>
<path d="M12.3846 30.2231V9.48402H14.956L15.8709 12.6245C16.2561 11.9537 16.7377 11.3606 17.2963 10.8452C17.8645 10.3299 18.5386 9.92155 19.3284 9.61042C20.1181 9.30901 21.0138 9.15344 22.0443 9.15344C23.6141 9.15344 24.8853 9.4743 25.8581 10.116C26.8211 10.7577 27.5242 11.6522 27.9672 12.7898C28.7955 11.5064 29.7971 10.5827 30.972 10.0091C32.147 9.43541 33.4471 9.15344 34.8821 9.15344C36.4808 9.15344 37.7714 9.48402 38.7344 10.1549C39.6975 10.8258 40.4006 11.7495 40.8436 12.9357C41.2866 14.1219 41.5081 15.5025 41.5081 17.0971V30.2231H38.0314V18.1375C38.0314 17.0777 37.9255 16.0956 37.7232 15.1914C37.521 14.2872 37.0972 13.5579 36.4808 12.994C35.8548 12.4398 34.911 12.1578 33.6397 12.1578C32.147 12.1578 30.9528 12.7412 30.0571 13.8885C29.1614 15.0456 28.7088 16.7374 28.7088 18.9639V30.2134H25.2321V18.1277C25.2321 17.0679 25.1261 16.0859 24.9239 15.1817C24.7216 14.2774 24.3075 13.5482 23.6815 12.9843C23.0651 12.4301 22.1117 12.1481 20.8404 12.1481C19.8484 12.1481 18.972 12.4106 18.2305 12.926C17.4889 13.4413 16.9014 14.2094 16.4873 15.2206C16.0732 16.2415 15.8709 17.486 15.8709 18.9639V30.2134H12.3942L12.3846 30.2231Z" fill="#000047"/>
<path d="M47.3751 37V9.48398H49.8984L50.8518 12.7412C51.266 12.012 51.786 11.38 52.4217 10.8355C53.0573 10.291 53.7989 9.8729 54.6367 9.58121C55.4746 9.28952 56.4377 9.14367 57.5164 9.14367C59.0862 9.14367 60.5501 9.57148 61.8887 10.4174C63.2274 11.2633 64.3061 12.4981 65.1151 14.0927C65.9337 15.697 66.3382 17.6416 66.3382 19.9265C66.3382 22.2114 65.9337 24.1171 65.1151 25.7408C64.2964 27.3548 63.2274 28.5896 61.8887 29.4452C60.5501 30.2911 59.0958 30.719 57.5164 30.719C56.4377 30.719 55.4843 30.5731 54.6367 30.2814C53.7892 29.9897 53.0573 29.5619 52.4217 29.0077C51.786 28.4535 51.266 27.8118 50.8518 27.0826V36.9903H47.3751V37ZM56.6111 27.7146C58.3735 27.7146 59.7892 27.034 60.8582 25.663C61.9176 24.3018 62.457 22.3864 62.457 19.9362C62.457 17.486 61.9273 15.5414 60.8582 14.1899C59.7989 12.8384 58.3831 12.1578 56.6111 12.1578C54.839 12.1578 53.4329 12.8384 52.3639 14.1899C51.3045 15.5414 50.7652 17.4568 50.7652 19.9362C50.7652 22.4155 51.2948 24.3018 52.3639 25.663C53.4233 27.0242 54.839 27.7146 56.6111 27.7146Z" fill="#000047"/>
<path d="M76.2862 30.7287C74.9861 30.7287 73.7918 30.4954 72.7036 30.0384C71.6153 29.5814 70.7389 28.9105 70.0936 28.0355C69.4483 27.1604 69.1209 26.0909 69.1209 24.8366C69.1209 23.1934 69.6891 21.8711 70.8159 20.8696C71.9523 19.8682 73.5703 19.0903 75.6795 18.5264C77.7886 17.9722 80.3119 17.5541 83.2397 17.2721V16.8929C83.2397 15.415 82.8641 14.2288 82.1032 13.3149C81.3424 12.4106 80.1482 11.9537 78.5206 11.9537C77.2493 11.9537 76.2188 12.2356 75.4194 12.8093C74.6201 13.3829 74.1097 14.1705 73.8881 15.172L70.5366 14.1705C71.0856 12.5856 72.0775 11.3508 73.4933 10.466C74.9186 9.59097 76.5462 9.15344 78.405 9.15344C81.2461 9.15344 83.3167 9.84377 84.6169 11.2244C85.917 12.6051 86.5623 14.715 86.5623 17.5541V22.4059C86.5623 23.5532 86.6008 24.5838 86.6682 25.5172C86.7356 26.4506 86.832 27.2965 86.9572 28.0646C87.0824 28.8327 87.1979 29.5522 87.3135 30.2134H84.1257L83.2974 27.3743C82.7196 28.4049 81.8528 29.2217 80.7068 29.8245C79.5607 30.4273 78.0872 30.719 76.2958 30.719L76.2862 30.7287ZM77.0663 27.9285C78.1739 27.9285 79.1947 27.734 80.1289 27.3451C81.0631 26.9562 81.8143 26.3048 82.3825 25.4005C82.9507 24.4963 83.23 23.2615 83.23 21.6961V20.0626C79.9748 20.3446 77.4419 20.8307 75.6506 21.5308C73.8593 22.2308 72.9636 23.3004 72.9636 24.7491C72.9636 25.6922 73.3296 26.4603 74.0615 27.0437C74.7934 27.6271 75.795 27.9188 77.0663 27.9188V27.9285Z" fill="#000047"/>
<path d="M119.345 30.2233C118.045 30.2233 117.043 30.0872 116.34 29.8247C115.637 29.5622 115.156 29.0468 114.896 28.2982C114.636 27.5495 114.501 26.4605 114.501 25.041V12.2941H111.024V9.49393H114.501V4.31158H117.978V9.49393H122.244V12.2941H117.978V24.4576C117.978 25.6243 118.112 26.3633 118.372 26.6744C118.632 26.9856 119.21 27.1314 120.096 27.1314H122.254V30.2233H119.355H119.345Z" fill="#000047"/>
<path d="M144.441 30.3553C143.363 30.3553 142.409 30.2095 141.562 29.9178C140.714 29.6261 139.982 29.1983 139.346 28.6441C138.711 28.0899 138.191 27.4481 137.777 26.7189L136.862 29.8594H134.29V0.262699H137.767V12.3873C138.181 11.658 138.701 11.026 139.337 10.4815C139.972 9.93706 140.714 9.51897 141.552 9.22728C142.39 8.9356 143.353 8.78975 144.432 8.78975C146.001 8.78975 147.465 9.21756 148.804 10.0635C150.143 10.9094 151.221 12.1442 152.03 13.7387C152.849 15.343 153.253 17.2876 153.253 19.5725C153.253 21.8574 152.849 23.802 152.03 25.4063C151.212 27.0106 150.143 28.2357 148.804 29.0816C147.465 29.9275 146.011 30.3553 144.432 30.3553H144.441ZM143.526 27.3412C145.289 27.3412 146.704 26.6606 147.773 25.2896C148.833 23.9284 149.372 22.013 149.372 19.5628C149.372 17.1126 148.842 15.168 147.773 13.8165C146.714 12.465 145.298 11.7844 143.526 11.7844C141.754 11.7844 140.348 12.465 139.279 13.8165C138.22 15.168 137.68 17.0834 137.68 19.5628C137.68 21.206 137.921 22.6061 138.403 23.7631C138.884 24.9202 139.568 25.805 140.454 26.4175C141.34 27.0301 142.361 27.3412 143.517 27.3412H143.526Z" fill="#000047"/>
<path d="M158.436 29.8495V11.9106H155.576V9.11043H161.913V29.8495H158.436ZM159.842 5.18235C159.149 5.18235 158.552 4.92955 158.041 4.40451C157.531 3.88919 157.271 3.28637 157.271 2.58631C157.271 1.88626 157.521 1.24454 158.041 0.74867C158.552 0.243075 159.149 0 159.842 0C160.536 0 161.171 0.252798 161.663 0.74867C162.163 1.25426 162.404 1.86681 162.404 2.58631C162.404 3.30581 162.154 3.88919 161.663 4.40451C161.162 4.91983 160.555 5.18235 159.842 5.18235Z" fill="#000047"/>
<path d="M198.105 30.3553C196.554 30.3553 195.11 29.9275 193.761 29.0816C192.403 28.2357 191.325 27.0009 190.506 25.4063C189.687 23.802 189.283 21.8574 189.283 19.5725C189.283 17.2876 189.687 15.343 190.506 13.7387C191.325 12.1345 192.403 10.9094 193.761 10.0635C195.11 9.21756 196.564 8.78975 198.105 8.78975C199.732 8.78975 201.1 9.12033 202.207 9.77177C203.315 10.4232 204.172 11.2983 204.779 12.3873V0.262699H208.256V22.0422C208.256 22.7422 208.294 23.7631 208.362 25.1146C208.429 26.4661 208.631 28.051 208.959 29.8594H205.684L204.769 26.7189C204.22 27.8371 203.373 28.7219 202.246 29.3733C201.11 30.0247 199.732 30.3553 198.105 30.3553ZM199.02 27.3412C200.204 27.3412 201.235 27.0398 202.102 26.4175C202.968 25.805 203.652 24.9202 204.134 23.7631C204.615 22.6061 204.856 21.206 204.856 19.5628C204.856 17.0834 204.326 15.168 203.257 13.8165C202.198 12.465 200.782 11.7844 199.01 11.7844C197.238 11.7844 195.832 12.465 194.763 13.8165C193.703 15.168 193.164 17.0834 193.164 19.5628C193.164 22.0422 193.694 23.9284 194.763 25.2896C195.822 26.6509 197.238 27.3412 199.01 27.3412H199.02Z" fill="#000047"/>
<path d="M215.046 29.8495V11.9106H212.186V9.11043H218.523V29.8495H215.046ZM216.452 5.18235C215.759 5.18235 215.162 4.92955 214.652 4.40451C214.141 3.88919 213.881 3.28637 213.881 2.58631C213.881 1.88626 214.131 1.24454 214.652 0.74867C215.162 0.243075 215.759 0 216.452 0C217.146 0 217.782 0.252798 218.273 0.74867C218.773 1.25426 219.014 1.86681 219.014 2.58631C219.014 3.30581 218.764 3.88919 218.273 4.40451C217.772 4.91983 217.165 5.18235 216.452 5.18235Z" fill="#000047"/>
<path d="M229.338 29.8496L222.009 9.11047H225.775L231.159 25.2506L236.504 9.11047H240.269L232.94 29.8496H229.338Z" fill="#000047"/>
<path d="M251.903 30.3547C249.745 30.3547 247.925 29.8783 246.432 28.9157C244.94 27.9532 243.803 26.66 243.014 25.0265C242.224 23.3931 241.829 21.5652 241.829 19.5331C241.829 17.3357 242.272 15.43 243.158 13.8257C244.044 12.2214 245.238 10.9866 246.741 10.1018C248.243 9.22671 249.938 8.78918 251.816 8.78918C253.444 8.78918 254.879 9.11976 256.121 9.7712C257.363 10.4226 258.394 11.3074 259.203 12.4061C260.012 13.5048 260.609 14.7591 260.985 16.1495C261.36 17.5399 261.485 18.9789 261.379 20.4567H245.479C245.585 21.818 245.874 22.9556 246.327 23.8403C246.779 24.7349 247.328 25.4252 247.964 25.9308C248.599 26.4364 249.264 26.7864 249.967 26.9809C250.67 27.1753 251.315 27.2726 251.893 27.2726C253.049 27.2726 254.022 27.0878 254.811 26.7086C255.601 26.3294 256.227 25.8336 256.699 25.221L260.05 26.2225C259.309 27.4184 258.24 28.4101 256.863 29.188C255.485 29.9658 253.829 30.3547 251.893 30.3547H251.903ZM245.527 17.6468H257.701C257.701 16.6745 257.46 15.7411 256.978 14.8466C256.497 13.9521 255.823 13.2229 254.946 12.6492C254.079 12.0755 253.03 11.7936 251.816 11.7936C250.901 11.7936 249.996 11.9783 249.1 12.3381C248.205 12.6978 247.424 13.3104 246.779 14.1563C246.134 15.0119 245.71 16.1689 245.518 17.6468H245.527Z" fill="#000047"/>
<path d="M265.606 29.8501V9.11097H268.129L269.246 12.9613C269.747 12.1251 270.344 11.3959 271.047 10.7639C271.75 10.1319 272.569 9.64573 273.493 9.30543C274.418 8.9554 275.449 8.78039 276.575 8.78039V12.4168C274.697 12.4168 273.214 12.7474 272.126 13.3988C271.038 14.0502 270.258 15.0128 269.786 16.2865C269.314 17.5505 269.083 19.1062 269.083 20.9438V29.8501H265.606Z" fill="#000047"/>
<path d="M300.385 29.8495V11.9106H297.524V9.11043H303.862V29.8495H300.385ZM301.801 5.18235C301.107 5.18235 300.51 4.92955 300 4.40451C299.489 3.88919 299.229 3.28637 299.229 2.58631C299.229 1.88626 299.48 1.24454 300 0.74867C300.51 0.243075 301.107 0 301.801 0C302.494 0 303.13 0.252798 303.621 0.74867C304.122 1.25426 304.362 1.86681 304.362 2.58631C304.362 3.30581 304.112 3.88919 303.621 4.40451C303.12 4.91983 302.513 5.18235 301.801 5.18235Z" fill="#000047"/>
<path d="M316.082 29.8493C314.782 29.8493 313.781 29.7132 313.078 29.4506C312.375 29.1881 311.893 28.6728 311.633 27.9241C311.373 27.1755 311.238 26.0865 311.238 24.6669V11.9201H307.761V9.1199H311.238V3.93755H314.715V9.1199H318.981V11.9201H314.715V24.0836C314.715 25.2503 314.85 25.9893 315.11 26.3004C315.37 26.6115 315.948 26.7574 316.834 26.7574H318.991V29.8493H316.092H316.082Z" fill="#000047"/>
<path d="M331.492 30.3547C329.334 30.3547 327.514 29.8783 326.021 28.9157C324.529 27.9531 323.392 26.6599 322.602 25.0265C321.813 23.393 321.418 21.5651 321.418 19.533C321.418 17.3356 321.861 15.4299 322.747 13.8256C323.633 12.2213 324.827 10.9865 326.33 10.1017C327.832 9.22665 329.527 8.78912 331.405 8.78912C333.033 8.78912 334.468 9.1197 335.71 9.77114C336.952 10.4226 337.983 11.3074 338.792 12.4061C339.601 13.5048 340.198 14.759 340.574 16.1494C340.949 17.5398 341.074 18.9788 340.968 20.4567H325.068C325.174 21.8179 325.463 22.9555 325.915 23.8403C326.368 24.7348 326.917 25.4251 327.553 25.9307C328.188 26.4363 328.853 26.7863 329.556 26.9808C330.259 27.1753 330.904 27.2725 331.482 27.2725C332.638 27.2725 333.61 27.0878 334.4 26.7086C335.19 26.3294 335.816 25.8335 336.288 25.2209L339.639 26.2224C338.898 27.4183 337.829 28.4101 336.452 29.1879C335.074 29.9658 333.418 30.3547 331.482 30.3547H331.492ZM325.116 17.6467H337.289C337.289 16.6745 337.049 15.741 336.567 14.8465C336.086 13.952 335.411 13.2228 334.535 12.6491C333.668 12.0755 332.619 11.7935 331.405 11.7935C330.49 11.7935 329.585 11.9783 328.689 12.338C327.793 12.6978 327.013 13.3103 326.368 14.1562C325.723 15.0118 325.299 16.1689 325.106 17.6467H325.116ZM330.288 5.97918L333.639 1.63301C333.996 1.15658 334.304 0.825999 334.574 0.63154C334.834 0.43708 335.142 0.339848 335.508 0.339848C335.951 0.339848 336.317 0.475969 336.606 0.738489C336.895 1.00101 337.039 1.37049 337.039 1.84691C337.039 2.17749 336.904 2.5178 336.644 2.84838C336.384 3.17896 335.96 3.59705 335.383 4.10264L333.148 5.97918H330.288Z" fill="#000047"/>
</svg>
