<svg width="209" height="65" viewBox="0 0 209 65" fill="none" xmlns="http://www.w3.org/2000/svg">
<path d="M102.331 19.3348L102.447 19.3829C106.373 21.2193 107.791 24.3343 107.791 28.7666V29.9203C107.791 29.9203 101.27 29.8338 100.624 29.8338C94.4594 29.8338 90.1088 25.1419 90.1088 19.3541C90.1088 13.5662 94.2279 8.87437 100.624 8.87437C101.087 8.87437 107.801 8.8936 107.801 8.8936V9.92234C107.801 14.0181 106.421 17.96 102.514 19.2675L102.341 19.3252L102.331 19.3348Z" fill="#00B34E"/>
<path d="M46.1397 45.207L46.3422 45.4185L46.6316 45.3609C50.5192 44.5148 53.8955 48.1298 52.7765 51.9275L52.6897 52.2063L52.8826 52.4178C55.5644 55.3502 54.1174 60.0709 50.2491 61.0131L49.9597 61.0804L49.8729 61.3592C48.6671 65.1377 43.8341 66.2529 41.0945 63.3782L40.8919 63.1667L40.6025 63.2244C36.715 64.0705 33.3387 60.4555 34.4577 56.6578L34.5445 56.379L34.3516 56.1674C31.6698 53.2351 33.1168 48.5144 36.9851 47.5722L37.2745 47.5049L37.3613 47.2261C38.5671 43.4476 43.4 42.3323 46.1397 45.207Z" fill="#638FFF"/>
<path d="M150.361 44.1014C153.265 41.3999 157.798 41.5533 160.509 44.4373V44.4471L158.808 46.0301C162.724 50.4706 162.409 57.2381 158.049 61.3006C153.602 65.454 146.618 65.2143 142.46 60.7821L149.787 53.951C147.324 51.0523 147.554 46.722 150.361 44.1014Z" fill="#FFAA50"/>
<path d="M2.86503 29.5162V11.7873H0V9.01831H6.34743V29.5258H2.86503V29.5162ZM4.27343 5.12447C3.57887 5.12447 2.98079 4.8745 2.46952 4.35532C1.95825 3.84576 1.69779 3.24967 1.69779 2.55743C1.69779 1.86519 1.9486 1.23064 2.46952 0.740309C2.98079 0.24036 3.57887 0 4.27343 0C4.96798 0 5.60465 0.249974 6.09662 0.740309C6.59825 1.24026 6.83941 1.84596 6.83941 2.55743C6.83941 3.2689 6.5886 3.84576 6.09662 4.35532C5.595 4.86489 4.98727 5.12447 4.27343 5.12447Z" fill="#000047"/>
<path d="M12.4051 29.5161V9.00858H14.9807L15.8971 12.114C16.283 11.4506 16.7653 10.8642 17.3248 10.3546C17.894 9.84503 18.5692 9.44122 19.3602 9.13356C20.1512 8.83552 21.0484 8.68169 22.0806 8.68169C23.6529 8.68169 24.9263 8.99896 25.9006 9.63351C26.8653 10.2681 27.5694 11.1526 28.0132 12.2775C28.8428 11.0084 29.846 10.095 31.0229 9.52775C32.1998 8.9605 33.5021 8.68169 34.9394 8.68169C36.5407 8.68169 37.8334 9.00858 38.798 9.67197C39.7627 10.3354 40.4669 11.2487 40.9106 12.4217C41.3544 13.5946 41.5762 14.9599 41.5762 16.5367V29.5161H38.0938V17.5654C38.0938 16.5174 37.9877 15.5464 37.7852 14.6522C37.5826 13.7581 37.1581 13.037 36.5407 12.4794C35.9137 11.9314 34.9684 11.6525 33.695 11.6525C32.1998 11.6525 31.0036 12.2294 30.1065 13.3639C29.2094 14.508 28.756 16.1809 28.756 18.3826V29.5065H25.2736V17.5558C25.2736 16.5078 25.1675 15.5368 24.9649 14.6426C24.7623 13.7485 24.3475 13.0274 23.7205 12.4698C23.1031 11.9217 22.1481 11.6429 20.8747 11.6429C19.8811 11.6429 19.0033 11.9025 18.2605 12.4121C17.5177 12.9216 16.9293 13.6812 16.5145 14.6811C16.0997 15.6906 15.8971 16.9212 15.8971 18.3826V29.5065H12.4147L12.4051 29.5161Z" fill="#000047"/>
<path d="M47.4516 36.2177V9.00899H49.979L50.934 12.2298C51.3488 11.5087 51.8697 10.8838 52.5064 10.3454C53.143 9.80698 53.8858 9.39357 54.7251 9.10513C55.5643 8.8167 56.529 8.67249 57.6094 8.67249C59.1818 8.67249 60.6481 9.09552 61.9889 9.93197C63.3298 10.7684 64.4102 11.9895 65.2205 13.5662C66.0405 15.1526 66.4456 17.0755 66.4456 19.3349C66.4456 21.5942 66.0405 23.4787 65.2205 25.0843C64.4006 26.6803 63.3298 27.9013 61.9889 28.7473C60.6481 29.5838 59.1914 30.0068 57.6094 30.0068C56.529 30.0068 55.574 29.8626 54.7251 29.5742C53.8762 29.2858 53.143 28.8627 52.5064 28.3147C51.8697 27.7667 51.3488 27.1321 50.934 26.411V36.2081H47.4516V36.2177ZM56.7026 27.036C58.4679 27.036 59.886 26.363 60.9567 25.0073C62.0179 23.6613 62.5581 21.7673 62.5581 19.3445C62.5581 16.9216 62.0275 14.9988 60.9567 13.6624C59.8956 12.326 58.4776 11.6529 56.7026 11.6529C54.9276 11.6529 53.5192 12.326 52.4485 13.6624C51.3874 14.9988 50.8471 16.8928 50.8471 19.3445C50.8471 21.7961 51.3777 23.6613 52.4485 25.0073C53.5096 26.3534 54.9276 27.036 56.7026 27.036Z" fill="#000047"/>
<path d="M76.4105 30.016C75.1083 30.016 73.9121 29.7853 72.822 29.3334C71.732 28.8815 70.8541 28.2181 70.2078 27.3528C69.5615 26.4876 69.2335 25.43 69.2335 24.1897C69.2335 22.5649 69.8027 21.2573 70.9313 20.267C72.0696 19.2768 73.6902 18.5076 75.8028 17.95C77.9154 17.4019 80.4428 16.9885 83.3754 16.7097V16.3347C83.3754 14.8734 82.9991 13.7004 82.2371 12.7966C81.475 11.9025 80.2788 11.4506 78.6485 11.4506C77.3752 11.4506 76.343 11.7295 75.5424 12.2967C74.7417 12.8639 74.2304 13.6427 74.0086 14.633L70.6516 13.6427C71.2014 12.0756 72.195 10.8545 73.613 9.97963C75.0407 9.11433 76.671 8.68169 78.5328 8.68169C81.3785 8.68169 83.4525 9.36431 84.7548 10.7296C86.0571 12.0948 86.7034 14.1811 86.7034 16.9885V21.7861C86.7034 22.9206 86.742 23.9397 86.8095 24.8627C86.8771 25.7857 86.9735 26.6222 87.0989 27.3817C87.2243 28.1412 87.3401 28.8527 87.4559 29.5065H84.2628L83.4332 26.6991C82.8544 27.7182 81.9863 28.5258 80.8383 29.1219C79.6904 29.718 78.2145 30.0064 76.4202 30.0064L76.4105 30.016ZM77.1919 27.2471C78.3013 27.2471 79.3238 27.0548 80.2595 26.6702C81.1952 26.2856 81.9477 25.6415 82.5168 24.7473C83.086 23.8532 83.3657 22.6322 83.3657 21.0843V19.469C80.1052 19.7479 77.5681 20.2286 75.7739 20.9208C73.9796 21.6131 73.0825 22.6706 73.0825 24.1032C73.0825 25.0358 73.4491 25.7953 74.1822 26.3722C74.9153 26.949 75.9186 27.2375 77.1919 27.2375V27.2471Z" fill="#000047"/>
<path d="M119.54 29.516C118.237 29.516 117.234 29.3814 116.53 29.1218C115.826 28.8622 115.343 28.3527 115.083 27.6123C114.823 26.872 114.688 25.7952 114.688 24.3915V11.787H111.205V9.0181H114.688V3.89362H118.17V9.0181H122.443V11.787H118.17V23.8147C118.17 24.9684 118.305 25.6991 118.565 26.0067C118.826 26.3144 119.405 26.4586 120.292 26.4586H122.453V29.516H119.549H119.54Z" fill="#000047"/>
<path d="M12.1162 64.628C11.0358 64.628 10.0808 64.4837 9.23187 64.1953C8.38297 63.9069 7.64983 63.4838 7.01316 62.9358C6.37649 62.3878 5.85557 61.7532 5.44077 61.0322L4.52435 64.1376H1.94872V34.8714H5.43112V46.8605C5.84592 46.1395 6.36684 45.5145 7.00351 44.9761C7.64018 44.4377 8.38297 44.0243 9.22222 43.7359C10.0615 43.4474 11.0261 43.3032 12.1065 43.3032C13.6789 43.3032 15.1452 43.7262 16.4861 44.5627C17.827 45.3992 18.9074 46.6202 19.7177 48.1969C20.5376 49.7833 20.9428 51.7062 20.9428 53.9656C20.9428 56.225 20.5376 58.1478 19.7177 59.7342C18.8977 61.3206 17.827 62.532 16.4861 63.3685C15.1452 64.2049 13.6886 64.628 12.1065 64.628H12.1162ZM11.1998 61.6475C12.9651 61.6475 14.3831 60.9745 15.4539 59.6188C16.515 58.2728 17.0552 56.3788 17.0552 53.956C17.0552 51.5331 16.5247 49.6103 15.4539 48.2739C14.3928 46.9375 12.9747 46.2644 11.1998 46.2644C9.4248 46.2644 8.0164 46.9375 6.94563 48.2739C5.88451 49.6103 5.3443 51.5043 5.3443 53.956C5.3443 55.5808 5.58547 56.9653 6.0678 58.1094C6.55012 59.2535 7.23503 60.1284 8.12251 60.7341C9.01 61.3398 10.0325 61.6475 11.1901 61.6475H11.1998Z" fill="#000047"/>
<path d="M26.1326 64.1279V46.3894H23.2676V43.6204H29.615V64.1279H26.1326ZM27.541 39.7362C26.8464 39.7362 26.2484 39.4862 25.7371 38.9671C25.2258 38.4575 24.9654 37.8614 24.9654 37.1692C24.9654 36.4769 25.2162 35.8424 25.7371 35.3521C26.2484 34.8521 26.8464 34.6117 27.541 34.6117C28.2356 34.6117 28.8722 34.8617 29.3642 35.3521C29.8658 35.852 30.107 36.4577 30.107 37.1692C30.107 37.8806 29.8562 38.4575 29.3642 38.9671C28.8626 39.4766 28.2548 39.7362 27.541 39.7362Z" fill="#000047"/>
<path d="M65.8667 64.628C64.3136 64.628 62.8667 64.2049 61.5161 63.3685C60.156 62.532 59.0756 61.311 58.2556 59.7342C57.4356 58.1478 57.0305 56.225 57.0305 53.9656C57.0305 51.7062 57.4356 49.7833 58.2556 48.1969C59.0756 46.6106 60.156 45.3992 61.5161 44.5627C62.8667 43.7262 64.3233 43.3032 65.8667 43.3032C67.497 43.3032 68.8668 43.6301 69.9762 44.2743C71.0855 44.9184 71.9441 45.7837 72.5518 46.8605V34.8714H76.0342V56.4076C76.0342 57.0999 76.0728 58.1094 76.1403 59.4458C76.2078 60.7822 76.4104 62.3493 76.7384 64.1376H73.4586L72.5422 61.0322C71.9923 62.1378 71.1434 63.0127 70.0148 63.6569C68.8765 64.3011 67.497 64.628 65.8667 64.628ZM66.7832 61.6475C67.9697 61.6475 69.0019 61.3494 69.8701 60.7341C70.7382 60.1284 71.4232 59.2535 71.9055 58.1094C72.3878 56.9653 72.629 55.5808 72.629 53.956C72.629 51.5043 72.0984 49.6103 71.0276 48.2739C69.9665 46.9375 68.5485 46.2644 66.7735 46.2644C64.9985 46.2644 63.5901 46.9375 62.5194 48.2739C61.4583 49.6103 60.9181 51.5043 60.9181 53.956C60.9181 56.4076 61.4486 58.2728 62.5194 59.6188C63.5805 60.9649 64.9985 61.6475 66.7735 61.6475H66.7832Z" fill="#000047"/>
<path d="M82.8349 64.1279V46.3894H79.9699V43.6204H86.3173V64.1279H82.8349ZM84.2433 39.7362C83.5487 39.7362 82.9506 39.4862 82.4394 38.9671C81.9281 38.4575 81.6677 37.8614 81.6677 37.1692C81.6677 36.4769 81.9185 35.8424 82.4394 35.3521C82.9506 34.8521 83.5487 34.6117 84.2433 34.6117C84.9378 34.6117 85.5745 34.8617 86.0665 35.3521C86.5681 35.852 86.8093 36.4577 86.8093 37.1692C86.8093 37.8806 86.5585 38.4575 86.0665 38.9671C85.5649 39.4766 84.9571 39.7362 84.2433 39.7362Z" fill="#000047"/>
<path d="M97.1508 64.1281L89.8098 43.6205H93.5816L98.974 59.5804L104.328 43.6205H108.1L100.759 64.1281H97.1508Z" fill="#000047"/>
<path d="M119.752 64.6279C117.591 64.6279 115.768 64.1568 114.273 63.2049C112.778 62.2531 111.64 60.9744 110.849 59.3592C110.058 57.744 109.662 55.9365 109.662 53.9271C109.662 51.7542 110.106 49.8698 110.993 48.2834C111.881 46.697 113.077 45.476 114.582 44.6011C116.087 43.7358 117.784 43.3031 119.666 43.3031C121.296 43.3031 122.733 43.63 123.978 44.2742C125.222 44.9184 126.254 45.7933 127.064 46.8797C127.875 47.9661 128.473 49.2064 128.849 50.5812C129.225 51.9561 129.351 53.379 129.245 54.8404H113.318C113.424 56.1864 113.714 57.3113 114.167 58.1862C114.62 59.0708 115.17 59.7534 115.807 60.2533C116.444 60.7533 117.109 61.0994 117.813 61.2917C118.518 61.484 119.164 61.5801 119.743 61.5801C120.9 61.5801 121.875 61.3974 122.666 61.0225C123.457 60.6475 124.084 60.1572 124.556 59.5515L127.913 60.5418C127.171 61.7243 126.1 62.705 124.72 63.4741C123.341 64.2433 121.682 64.6279 119.743 64.6279H119.752ZM113.366 52.0619H125.56C125.56 51.1004 125.318 50.1774 124.836 49.2929C124.354 48.4084 123.678 47.6873 122.801 47.1201C121.932 46.5528 120.881 46.274 119.666 46.274C118.749 46.274 117.842 46.4567 116.945 46.8124C116.048 47.1681 115.267 47.7738 114.62 48.6103C113.974 49.4564 113.55 50.6005 113.357 52.0619H113.366Z" fill="#000047"/>
<path d="M133.479 64.1278V43.6203H136.007L137.126 47.4276C137.627 46.6008 138.225 45.8797 138.93 45.2548C139.634 44.6298 140.454 44.1491 141.38 43.8126C142.306 43.4665 143.338 43.2934 144.467 43.2934V46.8892C142.586 46.8892 141.1 47.2161 140.01 47.8603C138.92 48.5044 138.139 49.4563 137.666 50.7158C137.193 51.9656 136.962 53.5039 136.962 55.321V64.1278H133.479Z" fill="#000047"/>
<path d="M168.313 64.1279V46.3894H165.448V43.6204H171.795V64.1279H168.313ZM169.731 39.7362C169.036 39.7362 168.438 39.4862 167.927 38.9671C167.416 38.4575 167.155 37.8614 167.155 37.1692C167.155 36.4769 167.406 35.8424 167.927 35.3521C168.438 34.8521 169.036 34.6117 169.731 34.6117C170.426 34.6117 171.062 34.8617 171.554 35.3521C172.056 35.852 172.297 36.4577 172.297 37.1692C172.297 37.8806 172.046 38.4575 171.554 38.9671C171.053 39.4766 170.445 39.7362 169.731 39.7362Z" fill="#000047"/>
<path d="M184.037 64.1277C182.735 64.1277 181.731 63.9931 181.027 63.7336C180.323 63.474 179.841 62.9644 179.58 62.2241C179.32 61.4838 179.185 60.407 179.185 59.0033V46.3988H175.702V43.6298H179.185V38.5054H182.667V43.6298H186.94V46.3988H182.667V58.4264C182.667 59.5801 182.802 60.3108 183.063 60.6185C183.323 60.9261 183.902 61.0704 184.789 61.0704H186.95V64.1277H184.046H184.037Z" fill="#000047"/>
<path d="M199.471 64.6277C197.311 64.6277 195.487 64.1566 193.992 63.2048C192.497 62.2529 191.359 60.9742 190.568 59.359C189.777 57.7438 189.381 55.9363 189.381 53.9269C189.381 51.754 189.825 49.8696 190.712 48.2832C191.6 46.6969 192.796 45.4758 194.301 44.6009C195.806 43.7356 197.504 43.303 199.385 43.303C201.015 43.303 202.452 43.6299 203.697 44.274C204.941 44.9182 205.973 45.7931 206.784 46.8795C207.594 47.966 208.192 49.2062 208.568 50.5811C208.944 51.9559 209.07 53.3789 208.964 54.8402H193.037C193.143 56.1863 193.433 57.3111 193.886 58.1861C194.339 59.0706 194.889 59.7532 195.526 60.2532C196.163 60.7531 196.828 61.0992 197.532 61.2915C198.237 61.4838 198.883 61.5799 199.462 61.5799C200.619 61.5799 201.594 61.3973 202.385 61.0223C203.176 60.6473 203.803 60.157 204.275 59.5513L207.632 60.5416C206.89 61.7242 205.819 62.7048 204.439 63.474C203.06 64.2431 201.401 64.6277 199.462 64.6277H199.471ZM193.085 52.0617H205.279C205.279 51.1002 205.037 50.1773 204.555 49.2927C204.073 48.4082 203.398 47.6871 202.52 47.1199C201.652 46.5526 200.6 46.2738 199.385 46.2738C198.468 46.2738 197.561 46.4565 196.664 46.8122C195.767 47.168 194.986 47.7737 194.339 48.6101C193.693 49.4562 193.269 50.6003 193.076 52.0617H193.085ZM198.266 40.5244L201.623 36.2268C201.98 35.7557 202.288 35.4288 202.558 35.2365C202.819 35.0442 203.127 34.9481 203.494 34.9481C203.938 34.9481 204.304 35.0827 204.594 35.3422C204.883 35.6018 205.028 35.9672 205.028 36.4383C205.028 36.7652 204.893 37.1017 204.632 37.4286C204.372 37.7555 203.947 38.1689 203.369 38.6688L201.131 40.5244H198.266Z" fill="#000047"/>
</svg>
